<?xml version="1.0" encoding="UTF-8"?> <svg xmlns="http://www.w3.org/2000/svg" width="760" height="499" viewBox="0 0 760 499" fill="none"><g clip-path="url(#clip0_44_139)"><path d="M44.09 182.52L45.37 185.13L48.24 185.54L46.16 187.57L46.65 190.43L44.09 189.08L41.52 190.43L42.01 187.57L39.93 185.54L42.8 185.13L44.09 182.52Z" fill="url(#paint0_linear_44_139)"></path><path d="M5.31 98.41L5.68 101.44L8.38 102.86L5.61 104.14L5.1 107.15L3.02 104.91L0 105.36L1.49 102.69L0.13 99.95L3.13 100.54L5.31 98.41Z" fill="url(#paint1_linear_44_139)"></path><path d="M142.4 0L143.68 2.6L146.55 3.02L144.47 5.04L144.97 7.9L142.4 6.55L139.83 7.9L140.32 5.04L138.24 3.02L141.11 2.6L142.4 0Z" fill="url(#paint2_linear_44_139)"></path><path d="M280.08 104.27L281.66 106.7L284.56 106.79L282.73 109.04L283.54 111.82L280.83 110.78L278.44 112.41L278.6 109.52L276.3 107.74L279.11 107L280.08 104.27Z" fill="url(#paint3_linear_44_139)"></path><path d="M175.19 184.12L178.05 184.59L180.06 182.49L180.5 185.35L183.12 186.61L180.53 187.92L180.14 190.8L178.09 188.74L175.24 189.26L176.56 186.68L175.19 184.12Z" fill="url(#paint4_linear_44_139)"></path><path d="M121.3 125.22L120.9 128.09L123.05 130.04L120.19 130.56L118.99 133.2L117.62 130.64L114.74 130.31L116.75 128.22L116.17 125.38L118.78 126.65L121.3 125.22Z" fill="url(#paint5_linear_44_139)"></path><path d="M298.54 16.05L299.82 18.65L302.69 19.07L300.61 21.09L301.11 23.95L298.54 22.6L295.97 23.95L296.46 21.09L294.38 19.07L297.25 18.65L298.54 16.05Z" fill="url(#paint6_linear_44_139)"></path><path d="M556.1 118.77L560.11 116.24L560.3 111.5L563.95 114.54L568.51 113.25L566.75 117.66L569.38 121.6L564.65 121.29L561.71 125.01L560.55 120.42L556.1 118.77Z" fill="url(#paint7_linear_44_139)"></path><path d="M598.67 228.89L595.91 229.78L595.07 232.55L593.37 230.2L590.47 230.26L592.19 227.92L591.24 225.18L593.99 226.09L596.3 224.34L596.29 227.24L598.67 228.89Z" fill="url(#paint8_linear_44_139)"></path><path d="M566.33 235.89L563.9 237.48L563.84 240.38L561.57 238.57L558.79 239.4L559.82 236.69L558.17 234.3L561.07 234.44L562.83 232.13L563.59 234.93L566.33 235.89Z" fill="url(#paint9_linear_44_139)"></path><path d="M596.53 32.56L599 34.09L601.65 32.92L600.97 35.74L602.9 37.9L600.01 38.12L598.54 40.62L597.44 37.94L594.61 37.32L596.82 35.45L596.53 32.56Z" fill="url(#paint10_linear_44_139)"></path><path d="M735.45 220.42L736.35 223.18L739.13 224.01L736.78 225.72L736.85 228.62L734.51 226.91L731.77 227.87L732.67 225.12L730.91 222.81H733.81L735.45 220.42Z" fill="url(#paint11_linear_44_139)"></path><path d="M664.29 367.08L664.59 369.96L667.14 371.35L664.49 372.53L663.96 375.38L662.02 373.23L659.14 373.6L660.59 371.09L659.35 368.47L662.18 369.07L664.29 367.08Z" fill="url(#paint12_linear_44_139)"></path><path d="M513.61 422.86L515.56 425.36L518.73 425.18L516.94 427.81L518.1 430.76L515.05 429.88L512.59 431.89L512.49 428.72L509.82 427L512.81 425.93L513.61 422.86Z" fill="url(#paint13_linear_44_139)"></path><path d="M441.11 376.75L439.55 379.19L440.68 381.86L437.87 381.13L435.68 383.04L435.51 380.14L433.02 378.64L435.72 377.58L436.38 374.75L438.22 377L441.11 376.75Z" fill="url(#paint14_linear_44_139)"></path><path d="M517.21 389.24L522.51 387.74L524.28 382.51L527.36 387.1L532.87 387.17L529.46 391.5L531.1 396.77L525.92 394.87L521.41 398.05L521.63 392.54L517.21 389.24Z" fill="url(#paint15_linear_44_139)"></path><path d="M391.94 448.94L393.5 451.39L396.4 451.49L394.56 453.73L395.36 456.52L392.66 455.45L390.25 457.08L390.43 454.18L388.14 452.39L390.95 451.67L391.94 448.94Z" fill="url(#paint16_linear_44_139)"></path><path d="M110.09 372.19L107.7 373.82L107.68 376.72L105.39 374.95L102.63 375.83L103.61 373.1L101.91 370.74L104.81 370.83L106.53 368.5L107.34 371.28L110.09 372.19Z" fill="url(#paint17_linear_44_139)"></path><path d="M72.28 256.69L73.5 259.32L76.37 259.79L74.25 261.78L74.68 264.64L72.14 263.24L69.55 264.54L70.09 261.69L68.06 259.62L70.94 259.26L72.28 256.69Z" fill="url(#paint18_linear_44_139)"></path><path d="M241.75 218.22L240.34 220.75L241.63 223.35L238.78 222.79L236.71 224.82L236.36 221.94L233.79 220.59L236.42 219.37L236.9 216.51L238.88 218.64L241.75 218.22Z" fill="url(#paint19_linear_44_139)"></path><path d="M274.16 327.36L276.69 328.78L279.29 327.5L278.73 330.34L280.74 332.43L277.86 332.76L276.51 335.33L275.3 332.69L272.44 332.19L274.57 330.23L274.16 327.36Z" fill="url(#paint20_linear_44_139)"></path><path d="M183.31 392.96L185.22 395.15L188.11 394.81L186.62 397.31L187.83 399.94L185 399.3L182.87 401.26L182.6 398.38L180.07 396.95L182.74 395.81L183.31 392.96Z" fill="url(#paint21_linear_44_139)"></path><path d="M32.27 53.27L34.38 57.73L39.26 58.52L35.67 61.91L36.43 66.79L32.09 64.42L27.69 66.66L28.6 61.8L25.11 58.3L30.01 57.67L32.27 53.27Z" fill="url(#paint22_linear_44_139)"></path><path d="M113.81 122.72L113.42 125.6L115.57 127.55L112.71 128.06L111.52 130.71L110.15 128.15L107.26 127.84L109.27 125.74L108.68 122.9L111.29 124.16L113.81 122.72Z" fill="url(#paint23_linear_44_139)"></path><path d="M693.49 92.47L695.57 94.49L698.42 93.91L697.14 96.52L698.57 99.05L695.7 98.64L693.73 100.78L693.23 97.92L690.59 96.71L693.16 95.35L693.49 92.47Z" fill="url(#paint24_linear_44_139)"></path><path d="M673.79 204.46L674.37 207.3L677.04 208.43L674.52 209.87L674.27 212.75L672.13 210.8L669.31 211.46L670.5 208.81L669.01 206.33L671.89 206.65L673.79 204.46Z" fill="url(#paint25_linear_44_139)"></path><path d="M754.95 322.74L756.24 325.34L759.11 325.75L757.03 327.78L757.52 330.64L754.95 329.29L752.39 330.64L752.88 327.78L750.8 325.75L753.67 325.34L754.95 322.74Z" fill="url(#paint26_linear_44_139)"></path><path d="M625.33 338.68L626.19 341.45L628.96 342.31L626.59 343.99L626.63 346.89L624.3 345.15L621.55 346.08L622.49 343.34L620.75 341.01L623.65 341.05L625.33 338.68Z" fill="url(#paint27_linear_44_139)"></path><path d="M628.77 490.97L630.05 493.57L632.92 493.99L630.84 496.01L631.33 498.87L628.77 497.52L626.2 498.87L626.69 496.01L624.61 493.99L627.48 493.57L628.77 490.97Z" fill="url(#paint28_linear_44_139)"></path><mask id="mask0_44_139" style="mask-type:alpha" maskUnits="userSpaceOnUse" x="0" y="0" width="760" height="499"><path d="M44.09 182.52L45.37 185.13L48.24 185.54L46.16 187.57L46.65 190.43L44.09 189.08L41.52 190.43L42.01 187.57L39.93 185.54L42.8 185.13L44.09 182.52Z" fill="url(#paint29_linear_44_139)"></path><path d="M5.31 98.41L5.68 101.44L8.38 102.86L5.61 104.14L5.1 107.15L3.02 104.91L0 105.36L1.49 102.69L0.13 99.95L3.13 100.54L5.31 98.41Z" fill="url(#paint30_linear_44_139)"></path><path d="M142.4 0L143.68 2.6L146.55 3.02L144.47 5.04L144.97 7.9L142.4 6.55L139.83 7.9L140.32 5.04L138.24 3.02L141.11 2.6L142.4 0Z" fill="url(#paint31_linear_44_139)"></path><path d="M280.08 104.27L281.66 106.7L284.56 106.79L282.73 109.04L283.54 111.82L280.83 110.78L278.44 112.41L278.6 109.52L276.3 107.74L279.11 107L280.08 104.27Z" fill="url(#paint32_linear_44_139)"></path><path d="M175.19 184.12L178.05 184.59L180.06 182.49L180.5 185.35L183.12 186.61L180.53 187.92L180.14 190.8L178.09 188.74L175.24 189.26L176.56 186.68L175.19 184.12Z" fill="url(#paint33_linear_44_139)"></path><path d="M121.3 125.22L120.9 128.09L123.05 130.04L120.19 130.56L118.99 133.2L117.62 130.64L114.74 130.31L116.75 128.22L116.17 125.38L118.78 126.65L121.3 125.22Z" fill="url(#paint34_linear_44_139)"></path><path d="M298.54 16.05L299.82 18.65L302.69 19.07L300.61 21.09L301.11 23.95L298.54 22.6L295.97 23.95L296.46 21.09L294.38 19.07L297.25 18.65L298.54 16.05Z" fill="url(#paint35_linear_44_139)"></path><path d="M556.1 118.77L560.11 116.24L560.3 111.5L563.95 114.54L568.51 113.25L566.75 117.66L569.38 121.6L564.65 121.29L561.71 125.01L560.55 120.42L556.1 118.77Z" fill="url(#paint36_linear_44_139)"></path><path d="M598.67 228.89L595.91 229.78L595.07 232.55L593.37 230.2L590.47 230.26L592.19 227.92L591.24 225.18L593.99 226.09L596.3 224.34L596.29 227.24L598.67 228.89Z" fill="url(#paint37_linear_44_139)"></path><path d="M566.33 235.89L563.9 237.48L563.84 240.38L561.57 238.57L558.79 239.4L559.82 236.69L558.17 234.3L561.07 234.44L562.83 232.13L563.59 234.93L566.33 235.89Z" fill="url(#paint38_linear_44_139)"></path><path d="M596.53 32.56L599 34.09L601.65 32.92L600.97 35.74L602.9 37.9L600.01 38.12L598.54 40.62L597.44 37.94L594.61 37.32L596.82 35.45L596.53 32.56Z" fill="url(#paint39_linear_44_139)"></path><path d="M735.45 220.42L736.35 223.18L739.13 224.01L736.78 225.72L736.85 228.62L734.51 226.91L731.77 227.87L732.67 225.12L730.91 222.81H733.81L735.45 220.42Z" fill="url(#paint40_linear_44_139)"></path><path d="M664.29 367.08L664.59 369.96L667.14 371.35L664.49 372.53L663.96 375.38L662.02 373.23L659.14 373.6L660.59 371.09L659.35 368.47L662.18 369.07L664.29 367.08Z" fill="url(#paint41_linear_44_139)"></path><path d="M513.61 422.86L515.56 425.36L518.73 425.18L516.94 427.81L518.1 430.76L515.05 429.88L512.59 431.89L512.49 428.72L509.82 427L512.81 425.93L513.61 422.86Z" fill="url(#paint42_linear_44_139)"></path><path d="M441.11 376.75L439.55 379.19L440.68 381.86L437.87 381.13L435.68 383.04L435.51 380.14L433.02 378.64L435.72 377.58L436.38 374.75L438.22 377L441.11 376.75Z" fill="url(#paint43_linear_44_139)"></path><path d="M517.21 389.24L522.51 387.74L524.28 382.51L527.36 387.1L532.87 387.17L529.46 391.5L531.1 396.77L525.92 394.87L521.41 398.05L521.63 392.54L517.21 389.24Z" fill="url(#paint44_linear_44_139)"></path><path d="M391.94 448.94L393.5 451.39L396.4 451.49L394.56 453.73L395.36 456.52L392.66 455.45L390.25 457.08L390.43 454.18L388.14 452.39L390.95 451.67L391.94 448.94Z" fill="url(#paint45_linear_44_139)"></path><path d="M110.09 372.19L107.7 373.82L107.68 376.72L105.39 374.95L102.63 375.83L103.61 373.1L101.91 370.74L104.81 370.83L106.53 368.5L107.34 371.28L110.09 372.19Z" fill="url(#paint46_linear_44_139)"></path><path d="M72.28 256.69L73.5 259.32L76.37 259.79L74.25 261.78L74.68 264.64L72.14 263.24L69.55 264.54L70.09 261.69L68.06 259.62L70.94 259.26L72.28 256.69Z" fill="url(#paint47_linear_44_139)"></path><path d="M241.75 218.22L240.34 220.75L241.63 223.35L238.78 222.79L236.71 224.82L236.36 221.94L233.79 220.59L236.42 219.37L236.9 216.51L238.88 218.64L241.75 218.22Z" fill="url(#paint48_linear_44_139)"></path><path d="M274.16 327.36L276.69 328.78L279.29 327.5L278.73 330.34L280.74 332.43L277.86 332.76L276.51 335.33L275.3 332.69L272.44 332.19L274.57 330.23L274.16 327.36Z" fill="url(#paint49_linear_44_139)"></path><path d="M183.31 392.96L185.22 395.15L188.11 394.81L186.62 397.31L187.83 399.94L185 399.3L182.87 401.26L182.6 398.38L180.07 396.95L182.74 395.81L183.31 392.96Z" fill="url(#paint50_linear_44_139)"></path><path d="M32.27 53.27L34.38 57.73L39.26 58.52L35.67 61.91L36.43 66.79L32.09 64.42L27.69 66.66L28.6 61.8L25.11 58.3L30.01 57.67L32.27 53.27Z" fill="url(#paint51_linear_44_139)"></path><path d="M113.81 122.72L113.42 125.6L115.57 127.55L112.71 128.06L111.52 130.71L110.15 128.15L107.26 127.84L109.27 125.74L108.68 122.9L111.29 124.16L113.81 122.72Z" fill="url(#paint52_linear_44_139)"></path><path d="M693.49 92.47L695.57 94.49L698.42 93.91L697.14 96.52L698.57 99.05L695.7 98.64L693.73 100.78L693.23 97.92L690.59 96.71L693.16 95.35L693.49 92.47Z" fill="url(#paint53_linear_44_139)"></path><path d="M673.79 204.46L674.37 207.3L677.04 208.43L674.52 209.87L674.27 212.75L672.13 210.8L669.31 211.46L670.5 208.81L669.01 206.33L671.89 206.65L673.79 204.46Z" fill="url(#paint54_linear_44_139)"></path><path d="M754.95 322.74L756.24 325.34L759.11 325.75L757.03 327.78L757.52 330.64L754.95 329.29L752.39 330.64L752.88 327.78L750.8 325.75L753.67 325.34L754.95 322.74Z" fill="url(#paint55_linear_44_139)"></path><path d="M625.33 338.68L626.19 341.45L628.96 342.31L626.59 343.99L626.63 346.89L624.3 345.15L621.55 346.08L622.49 343.34L620.75 341.01L623.65 341.05L625.33 338.68Z" fill="url(#paint56_linear_44_139)"></path><path d="M628.77 490.97L630.05 493.57L632.92 493.99L630.84 496.01L631.33 498.87L628.77 497.52L626.2 498.87L626.69 496.01L624.61 493.99L627.48 493.57L628.77 490.97Z" fill="url(#paint57_linear_44_139)"></path></mask><g mask="url(#mask0_44_139)"><g style="mix-blend-mode:overlay" filter="url(#filter0_f_44_139)"><ellipse cx="336.5" cy="245" rx="587.5" ry="413" fill="#8850E4" fill-opacity="0.54"></ellipse></g></g></g><defs><filter id="filter0_f_44_139" x="-351" y="-268" width="1375" height="1026" filterUnits="userSpaceOnUse" color-interpolation-filters="sRGB"><feFlood flood-opacity="0" result="BackgroundImageFix"></feFlood><feBlend mode="normal" in="SourceGraphic" in2="BackgroundImageFix" result="shape"></feBlend><feGaussianBlur stdDeviation="50" result="effect1_foregroundBlur_44_139"></feGaussianBlur></filter><linearGradient id="paint0_linear_44_139" x1="183.611" y1="95.8638" x2="437.323" y2="589.714" gradientUnits="userSpaceOnUse"><stop offset="0.01" stop-color="#C1C1C1"></stop><stop offset="0.04" stop-color="#B0B0B0"></stop><stop offset="0.11" stop-color="#838383"></stop><stop offset="0.13" stop-color="#797979"></stop><stop offset="0.26" stop-color="#CFCFCF"></stop><stop offset="0.52" stop-color="#ECECEC"></stop><stop offset="0.77" stop-color="#797979"></stop><stop offset="0.95" stop-color="#BFBFBF"></stop></linearGradient><linearGradient id="paint1_linear_44_139" x1="2205.81" y1="979.115" x2="2299.48" y2="1458.55" gradientUnits="userSpaceOnUse"><stop offset="0.01" stop-color="#C1C1C1"></stop><stop offset="0.04" stop-color="#B0B0B0"></stop><stop offset="0.11" stop-color="#838383"></stop><stop offset="0.13" stop-color="#797979"></stop><stop offset="0.26" stop-color="#CFCFCF"></stop><stop offset="0.52" stop-color="#ECECEC"></stop><stop offset="0.77" stop-color="#797979"></stop><stop offset="0.95" stop-color="#BFBFBF"></stop></linearGradient><linearGradient id="paint2_linear_44_139" x1="184.525" y1="95.9851" x2="438.168" y2="589.344" gradientUnits="userSpaceOnUse"><stop offset="0.01" stop-color="#C1C1C1"></stop><stop offset="0.04" stop-color="#B0B0B0"></stop><stop offset="0.11" stop-color="#838383"></stop><stop offset="0.13" stop-color="#797979"></stop><stop offset="0.26" stop-color="#CFCFCF"></stop><stop offset="0.52" stop-color="#ECECEC"></stop><stop offset="0.77" stop-color="#797979"></stop><stop offset="0.95" stop-color="#BFBFBF"></stop></linearGradient><linearGradient id="paint3_linear_44_139" x1="131.777" y1="99.9329" x2="432.382" y2="578.842" gradientUnits="userSpaceOnUse"><stop offset="0.01" stop-color="#C1C1C1"></stop><stop offset="0.04" stop-color="#B0B0B0"></stop><stop offset="0.11" stop-color="#838383"></stop><stop offset="0.13" stop-color="#797979"></stop><stop offset="0.26" stop-color="#CFCFCF"></stop><stop offset="0.52" stop-color="#ECECEC"></stop><stop offset="0.77" stop-color="#797979"></stop><stop offset="0.95" stop-color="#BFBFBF"></stop></linearGradient><linearGradient id="paint4_linear_44_139" x1="3450.92" y1="-1970.33" x2="4206.81" y2="-1993.31" gradientUnits="userSpaceOnUse"><stop offset="0.01" stop-color="#C1C1C1"></stop><stop offset="0.04" stop-color="#B0B0B0"></stop><stop offset="0.11" stop-color="#838383"></stop><stop offset="0.13" stop-color="#797979"></stop><stop offset="0.26" stop-color="#CFCFCF"></stop><stop offset="0.52" stop-color="#ECECEC"></stop><stop offset="0.77" stop-color="#797979"></stop><stop offset="0.95" stop-color="#BFBFBF"></stop></linearGradient><linearGradient id="paint5_linear_44_139" x1="425.252" y1="-13.3052" x2="440.345" y2="482.597" gradientUnits="userSpaceOnUse"><stop offset="0.01" stop-color="#C1C1C1"></stop><stop offset="0.04" stop-color="#B0B0B0"></stop><stop offset="0.11" stop-color="#838383"></stop><stop offset="0.13" stop-color="#797979"></stop><stop offset="0.26" stop-color="#CFCFCF"></stop><stop offset="0.52" stop-color="#ECECEC"></stop><stop offset="0.77" stop-color="#797979"></stop><stop offset="0.95" stop-color="#BFBFBF"></stop></linearGradient><linearGradient id="paint6_linear_44_139" x1="184.525" y1="95.9851" x2="438.168" y2="589.344" gradientUnits="userSpaceOnUse"><stop offset="0.01" stop-color="#C1C1C1"></stop><stop offset="0.04" stop-color="#B0B0B0"></stop><stop offset="0.11" stop-color="#838383"></stop><stop offset="0.13" stop-color="#797979"></stop><stop offset="0.26" stop-color="#CFCFCF"></stop><stop offset="0.52" stop-color="#ECECEC"></stop><stop offset="0.77" stop-color="#797979"></stop><stop offset="0.95" stop-color="#BFBFBF"></stop></linearGradient><linearGradient id="paint7_linear_44_139" x1="-1720.64" y1="1579.17" x2="-1387.59" y2="1104.25" gradientUnits="userSpaceOnUse"><stop offset="0.01" stop-color="#C1C1C1"></stop><stop offset="0.04" stop-color="#B0B0B0"></stop><stop offset="0.11" stop-color="#838383"></stop><stop offset="0.13" stop-color="#797979"></stop><stop offset="0.26" stop-color="#CFCFCF"></stop><stop offset="0.52" stop-color="#ECECEC"></stop><stop offset="0.77" stop-color="#797979"></stop><stop offset="0.95" stop-color="#BFBFBF"></stop></linearGradient><linearGradient id="paint8_linear_44_139" x1="619.047" y1="127.548" x2="118.678" y2="535.385" gradientUnits="userSpaceOnUse"><stop offset="0.01" stop-color="#C1C1C1"></stop><stop offset="0.04" stop-color="#B0B0B0"></stop><stop offset="0.11" stop-color="#838383"></stop><stop offset="0.13" stop-color="#797979"></stop><stop offset="0.26" stop-color="#CFCFCF"></stop><stop offset="0.52" stop-color="#ECECEC"></stop><stop offset="0.77" stop-color="#797979"></stop><stop offset="0.95" stop-color="#BFBFBF"></stop></linearGradient><linearGradient id="paint9_linear_44_139" x1="559.317" y1="58.8952" x2="236.03" y2="533.461" gradientUnits="userSpaceOnUse"><stop offset="0.01" stop-color="#C1C1C1"></stop><stop offset="0.04" stop-color="#B0B0B0"></stop><stop offset="0.11" stop-color="#838383"></stop><stop offset="0.13" stop-color="#797979"></stop><stop offset="0.26" stop-color="#CFCFCF"></stop><stop offset="0.52" stop-color="#ECECEC"></stop><stop offset="0.77" stop-color="#797979"></stop><stop offset="0.95" stop-color="#BFBFBF"></stop></linearGradient><linearGradient id="paint10_linear_44_139" x1="100.226" y1="175.859" x2="685.371" y2="513.088" gradientUnits="userSpaceOnUse"><stop offset="0.01" stop-color="#C1C1C1"></stop><stop offset="0.04" stop-color="#B0B0B0"></stop><stop offset="0.11" stop-color="#838383"></stop><stop offset="0.13" stop-color="#797979"></stop><stop offset="0.26" stop-color="#CFCFCF"></stop><stop offset="0.52" stop-color="#ECECEC"></stop><stop offset="0.77" stop-color="#797979"></stop><stop offset="0.95" stop-color="#BFBFBF"></stop></linearGradient><linearGradient id="paint11_linear_44_139" x1="-3280.68" y1="1943.9" x2="-3105.5" y2="2430.66" gradientUnits="userSpaceOnUse"><stop offset="0.01" stop-color="#C1C1C1"></stop><stop offset="0.04" stop-color="#B0B0B0"></stop><stop offset="0.11" stop-color="#838383"></stop><stop offset="0.13" stop-color="#797979"></stop><stop offset="0.26" stop-color="#CFCFCF"></stop><stop offset="0.52" stop-color="#ECECEC"></stop><stop offset="0.77" stop-color="#797979"></stop><stop offset="0.95" stop-color="#BFBFBF"></stop></linearGradient><linearGradient id="paint12_linear_44_139" x1="304.022" y1="33.3835" x2="393.714" y2="513.675" gradientUnits="userSpaceOnUse"><stop offset="0.01" stop-color="#C1C1C1"></stop><stop offset="0.04" stop-color="#B0B0B0"></stop><stop offset="0.11" stop-color="#838383"></stop><stop offset="0.13" stop-color="#797979"></stop><stop offset="0.26" stop-color="#CFCFCF"></stop><stop offset="0.52" stop-color="#ECECEC"></stop><stop offset="0.77" stop-color="#797979"></stop><stop offset="0.95" stop-color="#BFBFBF"></stop></linearGradient><linearGradient id="paint13_linear_44_139" x1="3493.52" y1="1552.14" x2="3834.69" y2="2021.63" gradientUnits="userSpaceOnUse"><stop offset="0.01" stop-color="#C1C1C1"></stop><stop offset="0.04" stop-color="#B0B0B0"></stop><stop offset="0.11" stop-color="#838383"></stop><stop offset="0.13" stop-color="#797979"></stop><stop offset="0.26" stop-color="#CFCFCF"></stop><stop offset="0.52" stop-color="#ECECEC"></stop><stop offset="0.77" stop-color="#797979"></stop><stop offset="0.95" stop-color="#BFBFBF"></stop></linearGradient><linearGradient id="paint14_linear_44_139" x1="535.976" y1="57.4321" x2="410.039" y2="539.552" gradientUnits="userSpaceOnUse"><stop offset="0.01" stop-color="#C1C1C1"></stop><stop offset="0.04" stop-color="#B0B0B0"></stop><stop offset="0.11" stop-color="#838383"></stop><stop offset="0.13" stop-color="#797979"></stop><stop offset="0.26" stop-color="#CFCFCF"></stop><stop offset="0.52" stop-color="#ECECEC"></stop><stop offset="0.77" stop-color="#797979"></stop><stop offset="0.95" stop-color="#BFBFBF"></stop></linearGradient><linearGradient id="paint15_linear_44_139" x1="583.989" y1="100.627" x2="1108.27" y2="-289.372" gradientUnits="userSpaceOnUse"><stop offset="0.01" stop-color="#C1C1C1"></stop><stop offset="0.04" stop-color="#B0B0B0"></stop><stop offset="0.11" stop-color="#838383"></stop><stop offset="0.13" stop-color="#797979"></stop><stop offset="0.26" stop-color="#CFCFCF"></stop><stop offset="0.52" stop-color="#ECECEC"></stop><stop offset="0.77" stop-color="#797979"></stop><stop offset="0.95" stop-color="#BFBFBF"></stop></linearGradient><linearGradient id="paint16_linear_44_139" x1="184.517" y1="59.8961" x2="482.182" y2="539.293" gradientUnits="userSpaceOnUse"><stop offset="0.01" stop-color="#C1C1C1"></stop><stop offset="0.04" stop-color="#B0B0B0"></stop><stop offset="0.11" stop-color="#838383"></stop><stop offset="0.13" stop-color="#797979"></stop><stop offset="0.26" stop-color="#CFCFCF"></stop><stop offset="0.52" stop-color="#ECECEC"></stop><stop offset="0.77" stop-color="#797979"></stop><stop offset="0.95" stop-color="#BFBFBF"></stop></linearGradient><linearGradient id="paint17_linear_44_139" x1="658.336" y1="134.672" x2="343.304" y2="610.978" gradientUnits="userSpaceOnUse"><stop offset="0.01" stop-color="#C1C1C1"></stop><stop offset="0.04" stop-color="#B0B0B0"></stop><stop offset="0.11" stop-color="#838383"></stop><stop offset="0.13" stop-color="#797979"></stop><stop offset="0.26" stop-color="#CFCFCF"></stop><stop offset="0.52" stop-color="#ECECEC"></stop><stop offset="0.77" stop-color="#797979"></stop><stop offset="0.95" stop-color="#BFBFBF"></stop></linearGradient><linearGradient id="paint18_linear_44_139" x1="246.594" y1="66.0383" x2="488.224" y2="559.055" gradientUnits="userSpaceOnUse"><stop offset="0.01" stop-color="#C1C1C1"></stop><stop offset="0.04" stop-color="#B0B0B0"></stop><stop offset="0.11" stop-color="#838383"></stop><stop offset="0.13" stop-color="#797979"></stop><stop offset="0.26" stop-color="#CFCFCF"></stop><stop offset="0.52" stop-color="#ECECEC"></stop><stop offset="0.77" stop-color="#797979"></stop><stop offset="0.95" stop-color="#BFBFBF"></stop></linearGradient><linearGradient id="paint19_linear_44_139" x1="-2647.93" y1="649.828" x2="-2749.06" y2="1129.98" gradientUnits="userSpaceOnUse"><stop offset="0.01" stop-color="#C1C1C1"></stop><stop offset="0.04" stop-color="#B0B0B0"></stop><stop offset="0.11" stop-color="#838383"></stop><stop offset="0.13" stop-color="#797979"></stop><stop offset="0.26" stop-color="#CFCFCF"></stop><stop offset="0.52" stop-color="#ECECEC"></stop><stop offset="0.77" stop-color="#797979"></stop><stop offset="0.95" stop-color="#BFBFBF"></stop></linearGradient><linearGradient id="paint20_linear_44_139" x1="-25.8555" y1="-4722.28" x2="584.107" y2="-4410.24" gradientUnits="userSpaceOnUse"><stop offset="0.01" stop-color="#C1C1C1"></stop><stop offset="0.04" stop-color="#B0B0B0"></stop><stop offset="0.11" stop-color="#838383"></stop><stop offset="0.13" stop-color="#797979"></stop><stop offset="0.26" stop-color="#CFCFCF"></stop><stop offset="0.52" stop-color="#ECECEC"></stop><stop offset="0.77" stop-color="#797979"></stop><stop offset="0.95" stop-color="#BFBFBF"></stop></linearGradient><linearGradient id="paint21_linear_44_139" x1="-4663.78" y1="-217.303" x2="-4286.32" y2="250.945" gradientUnits="userSpaceOnUse"><stop offset="0.01" stop-color="#C1C1C1"></stop><stop offset="0.04" stop-color="#B0B0B0"></stop><stop offset="0.11" stop-color="#838383"></stop><stop offset="0.13" stop-color="#797979"></stop><stop offset="0.26" stop-color="#CFCFCF"></stop><stop offset="0.52" stop-color="#ECECEC"></stop><stop offset="0.77" stop-color="#797979"></stop><stop offset="0.95" stop-color="#BFBFBF"></stop></linearGradient><linearGradient id="paint22_linear_44_139" x1="1011.45" y1="584.252" x2="1255.72" y2="1076.56" gradientUnits="userSpaceOnUse"><stop offset="0.01" stop-color="#C1C1C1"></stop><stop offset="0.04" stop-color="#B0B0B0"></stop><stop offset="0.11" stop-color="#838383"></stop><stop offset="0.13" stop-color="#797979"></stop><stop offset="0.26" stop-color="#CFCFCF"></stop><stop offset="0.52" stop-color="#ECECEC"></stop><stop offset="0.77" stop-color="#797979"></stop><stop offset="0.95" stop-color="#BFBFBF"></stop></linearGradient><linearGradient id="paint23_linear_44_139" x1="194.729" y1="-888.201" x2="210.648" y2="-392.296" gradientUnits="userSpaceOnUse"><stop offset="0.01" stop-color="#C1C1C1"></stop><stop offset="0.04" stop-color="#B0B0B0"></stop><stop offset="0.11" stop-color="#838383"></stop><stop offset="0.13" stop-color="#797979"></stop><stop offset="0.26" stop-color="#CFCFCF"></stop><stop offset="0.52" stop-color="#ECECEC"></stop><stop offset="0.77" stop-color="#797979"></stop><stop offset="0.95" stop-color="#BFBFBF"></stop></linearGradient><linearGradient id="paint24_linear_44_139" x1="167.161" y1="118.412" x2="596.546" y2="570.868" gradientUnits="userSpaceOnUse"><stop offset="0.01" stop-color="#C1C1C1"></stop><stop offset="0.04" stop-color="#B0B0B0"></stop><stop offset="0.11" stop-color="#838383"></stop><stop offset="0.13" stop-color="#797979"></stop><stop offset="0.26" stop-color="#CFCFCF"></stop><stop offset="0.52" stop-color="#ECECEC"></stop><stop offset="0.77" stop-color="#797979"></stop><stop offset="0.95" stop-color="#BFBFBF"></stop></linearGradient><linearGradient id="paint25_linear_44_139" x1="238.753" y1="54.8362" x2="363.238" y2="537.73" gradientUnits="userSpaceOnUse"><stop offset="0.01" stop-color="#C1C1C1"></stop><stop offset="0.04" stop-color="#B0B0B0"></stop><stop offset="0.11" stop-color="#838383"></stop><stop offset="0.13" stop-color="#797979"></stop><stop offset="0.26" stop-color="#CFCFCF"></stop><stop offset="0.52" stop-color="#ECECEC"></stop><stop offset="0.77" stop-color="#797979"></stop><stop offset="0.95" stop-color="#BFBFBF"></stop></linearGradient><linearGradient id="paint26_linear_44_139" x1="183.611" y1="95.3536" x2="437.832" y2="589.567" gradientUnits="userSpaceOnUse"><stop offset="0.01" stop-color="#C1C1C1"></stop><stop offset="0.04" stop-color="#B0B0B0"></stop><stop offset="0.11" stop-color="#838383"></stop><stop offset="0.13" stop-color="#797979"></stop><stop offset="0.26" stop-color="#CFCFCF"></stop><stop offset="0.52" stop-color="#ECECEC"></stop><stop offset="0.77" stop-color="#797979"></stop><stop offset="0.95" stop-color="#BFBFBF"></stop></linearGradient><linearGradient id="paint27_linear_44_139" x1="238.983" y1="42.5783" x2="406.585" y2="529.034" gradientUnits="userSpaceOnUse"><stop offset="0.01" stop-color="#C1C1C1"></stop><stop offset="0.04" stop-color="#B0B0B0"></stop><stop offset="0.11" stop-color="#838383"></stop><stop offset="0.13" stop-color="#797979"></stop><stop offset="0.26" stop-color="#CFCFCF"></stop><stop offset="0.52" stop-color="#ECECEC"></stop><stop offset="0.77" stop-color="#797979"></stop><stop offset="0.95" stop-color="#BFBFBF"></stop></linearGradient><linearGradient id="paint28_linear_44_139" x1="626.62" y1="492.49" x2="631.36" y2="498.85" gradientUnits="userSpaceOnUse"><stop offset="0.01" stop-color="#C1C1C1"></stop><stop offset="0.04" stop-color="#B0B0B0"></stop><stop offset="0.11" stop-color="#838383"></stop><stop offset="0.13" stop-color="#797979"></stop><stop offset="0.26" stop-color="#CFCFCF"></stop><stop offset="0.52" stop-color="#ECECEC"></stop><stop offset="0.77" stop-color="#797979"></stop><stop offset="0.95" stop-color="#BFBFBF"></stop></linearGradient><linearGradient id="paint29_linear_44_139" x1="183.611" y1="95.8638" x2="437.323" y2="589.714" gradientUnits="userSpaceOnUse"><stop offset="0.01" stop-color="#C1C1C1"></stop><stop offset="0.04" stop-color="#B0B0B0"></stop><stop offset="0.11" stop-color="#838383"></stop><stop offset="0.13" stop-color="#797979"></stop><stop offset="0.26" stop-color="#CFCFCF"></stop><stop offset="0.52" stop-color="#ECECEC"></stop><stop offset="0.77" stop-color="#797979"></stop><stop offset="0.95" stop-color="#BFBFBF"></stop></linearGradient><linearGradient id="paint30_linear_44_139" x1="2205.81" y1="979.115" x2="2299.48" y2="1458.55" gradientUnits="userSpaceOnUse"><stop offset="0.01" stop-color="#C1C1C1"></stop><stop offset="0.04" stop-color="#B0B0B0"></stop><stop offset="0.11" stop-color="#838383"></stop><stop offset="0.13" stop-color="#797979"></stop><stop offset="0.26" stop-color="#CFCFCF"></stop><stop offset="0.52" stop-color="#ECECEC"></stop><stop offset="0.77" stop-color="#797979"></stop><stop offset="0.95" stop-color="#BFBFBF"></stop></linearGradient><linearGradient id="paint31_linear_44_139" x1="184.525" y1="95.9851" x2="438.168" y2="589.344" gradientUnits="userSpaceOnUse"><stop offset="0.01" stop-color="#C1C1C1"></stop><stop offset="0.04" stop-color="#B0B0B0"></stop><stop offset="0.11" stop-color="#838383"></stop><stop offset="0.13" stop-color="#797979"></stop><stop offset="0.26" stop-color="#CFCFCF"></stop><stop offset="0.52" stop-color="#ECECEC"></stop><stop offset="0.77" stop-color="#797979"></stop><stop offset="0.95" stop-color="#BFBFBF"></stop></linearGradient><linearGradient id="paint32_linear_44_139" x1="131.777" y1="99.9329" x2="432.382" y2="578.842" gradientUnits="userSpaceOnUse"><stop offset="0.01" stop-color="#C1C1C1"></stop><stop offset="0.04" stop-color="#B0B0B0"></stop><stop offset="0.11" stop-color="#838383"></stop><stop offset="0.13" stop-color="#797979"></stop><stop offset="0.26" stop-color="#CFCFCF"></stop><stop offset="0.52" stop-color="#ECECEC"></stop><stop offset="0.77" stop-color="#797979"></stop><stop offset="0.95" stop-color="#BFBFBF"></stop></linearGradient><linearGradient id="paint33_linear_44_139" x1="3450.92" y1="-1970.33" x2="4206.81" y2="-1993.31" gradientUnits="userSpaceOnUse"><stop offset="0.01" stop-color="#C1C1C1"></stop><stop offset="0.04" stop-color="#B0B0B0"></stop><stop offset="0.11" stop-color="#838383"></stop><stop offset="0.13" stop-color="#797979"></stop><stop offset="0.26" stop-color="#CFCFCF"></stop><stop offset="0.52" stop-color="#ECECEC"></stop><stop offset="0.77" stop-color="#797979"></stop><stop offset="0.95" stop-color="#BFBFBF"></stop></linearGradient><linearGradient id="paint34_linear_44_139" x1="425.252" y1="-13.3052" x2="440.345" y2="482.597" gradientUnits="userSpaceOnUse"><stop offset="0.01" stop-color="#C1C1C1"></stop><stop offset="0.04" stop-color="#B0B0B0"></stop><stop offset="0.11" stop-color="#838383"></stop><stop offset="0.13" stop-color="#797979"></stop><stop offset="0.26" stop-color="#CFCFCF"></stop><stop offset="0.52" stop-color="#ECECEC"></stop><stop offset="0.77" stop-color="#797979"></stop><stop offset="0.95" stop-color="#BFBFBF"></stop></linearGradient><linearGradient id="paint35_linear_44_139" x1="184.525" y1="95.9851" x2="438.168" y2="589.344" gradientUnits="userSpaceOnUse"><stop offset="0.01" stop-color="#C1C1C1"></stop><stop offset="0.04" stop-color="#B0B0B0"></stop><stop offset="0.11" stop-color="#838383"></stop><stop offset="0.13" stop-color="#797979"></stop><stop offset="0.26" stop-color="#CFCFCF"></stop><stop offset="0.52" stop-color="#ECECEC"></stop><stop offset="0.77" stop-color="#797979"></stop><stop offset="0.95" stop-color="#BFBFBF"></stop></linearGradient><linearGradient id="paint36_linear_44_139" x1="-1720.64" y1="1579.17" x2="-1387.59" y2="1104.25" gradientUnits="userSpaceOnUse"><stop offset="0.01" stop-color="#C1C1C1"></stop><stop offset="0.04" stop-color="#B0B0B0"></stop><stop offset="0.11" stop-color="#838383"></stop><stop offset="0.13" stop-color="#797979"></stop><stop offset="0.26" stop-color="#CFCFCF"></stop><stop offset="0.52" stop-color="#ECECEC"></stop><stop offset="0.77" stop-color="#797979"></stop><stop offset="0.95" stop-color="#BFBFBF"></stop></linearGradient><linearGradient id="paint37_linear_44_139" x1="619.047" y1="127.548" x2="118.678" y2="535.385" gradientUnits="userSpaceOnUse"><stop offset="0.01" stop-color="#C1C1C1"></stop><stop offset="0.04" stop-color="#B0B0B0"></stop><stop offset="0.11" stop-color="#838383"></stop><stop offset="0.13" stop-color="#797979"></stop><stop offset="0.26" stop-color="#CFCFCF"></stop><stop offset="0.52" stop-color="#ECECEC"></stop><stop offset="0.77" stop-color="#797979"></stop><stop offset="0.95" stop-color="#BFBFBF"></stop></linearGradient><linearGradient id="paint38_linear_44_139" x1="559.317" y1="58.8952" x2="236.03" y2="533.461" gradientUnits="userSpaceOnUse"><stop offset="0.01" stop-color="#C1C1C1"></stop><stop offset="0.04" stop-color="#B0B0B0"></stop><stop offset="0.11" stop-color="#838383"></stop><stop offset="0.13" stop-color="#797979"></stop><stop offset="0.26" stop-color="#CFCFCF"></stop><stop offset="0.52" stop-color="#ECECEC"></stop><stop offset="0.77" stop-color="#797979"></stop><stop offset="0.95" stop-color="#BFBFBF"></stop></linearGradient><linearGradient id="paint39_linear_44_139" x1="100.226" y1="175.859" x2="685.371" y2="513.088" gradientUnits="userSpaceOnUse"><stop offset="0.01" stop-color="#C1C1C1"></stop><stop offset="0.04" stop-color="#B0B0B0"></stop><stop offset="0.11" stop-color="#838383"></stop><stop offset="0.13" stop-color="#797979"></stop><stop offset="0.26" stop-color="#CFCFCF"></stop><stop offset="0.52" stop-color="#ECECEC"></stop><stop offset="0.77" stop-color="#797979"></stop><stop offset="0.95" stop-color="#BFBFBF"></stop></linearGradient><linearGradient id="paint40_linear_44_139" x1="-3280.68" y1="1943.9" x2="-3105.5" y2="2430.66" gradientUnits="userSpaceOnUse"><stop offset="0.01" stop-color="#C1C1C1"></stop><stop offset="0.04" stop-color="#B0B0B0"></stop><stop offset="0.11" stop-color="#838383"></stop><stop offset="0.13" stop-color="#797979"></stop><stop offset="0.26" stop-color="#CFCFCF"></stop><stop offset="0.52" stop-color="#ECECEC"></stop><stop offset="0.77" stop-color="#797979"></stop><stop offset="0.95" stop-color="#BFBFBF"></stop></linearGradient><linearGradient id="paint41_linear_44_139" x1="304.022" y1="33.3835" x2="393.714" y2="513.675" gradientUnits="userSpaceOnUse"><stop offset="0.01" stop-color="#C1C1C1"></stop><stop offset="0.04" stop-color="#B0B0B0"></stop><stop offset="0.11" stop-color="#838383"></stop><stop offset="0.13" stop-color="#797979"></stop><stop offset="0.26" stop-color="#CFCFCF"></stop><stop offset="0.52" stop-color="#ECECEC"></stop><stop offset="0.77" stop-color="#797979"></stop><stop offset="0.95" stop-color="#BFBFBF"></stop></linearGradient><linearGradient id="paint42_linear_44_139" x1="3493.52" y1="1552.14" x2="3834.69" y2="2021.63" gradientUnits="userSpaceOnUse"><stop offset="0.01" stop-color="#C1C1C1"></stop><stop offset="0.04" stop-color="#B0B0B0"></stop><stop offset="0.11" stop-color="#838383"></stop><stop offset="0.13" stop-color="#797979"></stop><stop offset="0.26" stop-color="#CFCFCF"></stop><stop offset="0.52" stop-color="#ECECEC"></stop><stop offset="0.77" stop-color="#797979"></stop><stop offset="0.95" stop-color="#BFBFBF"></stop></linearGradient><linearGradient id="paint43_linear_44_139" x1="535.976" y1="57.4321" x2="410.039" y2="539.552" gradientUnits="userSpaceOnUse"><stop offset="0.01" stop-color="#C1C1C1"></stop><stop offset="0.04" stop-color="#B0B0B0"></stop><stop offset="0.11" stop-color="#838383"></stop><stop offset="0.13" stop-color="#797979"></stop><stop offset="0.26" stop-color="#CFCFCF"></stop><stop offset="0.52" stop-color="#ECECEC"></stop><stop offset="0.77" stop-color="#797979"></stop><stop offset="0.95" stop-color="#BFBFBF"></stop></linearGradient><linearGradient id="paint44_linear_44_139" x1="583.989" y1="100.627" x2="1108.27" y2="-289.372" gradientUnits="userSpaceOnUse"><stop offset="0.01" stop-color="#C1C1C1"></stop><stop offset="0.04" stop-color="#B0B0B0"></stop><stop offset="0.11" stop-color="#838383"></stop><stop offset="0.13" stop-color="#797979"></stop><stop offset="0.26" stop-color="#CFCFCF"></stop><stop offset="0.52" stop-color="#ECECEC"></stop><stop offset="0.77" stop-color="#797979"></stop><stop offset="0.95" stop-color="#BFBFBF"></stop></linearGradient><linearGradient id="paint45_linear_44_139" x1="184.517" y1="59.8961" x2="482.182" y2="539.293" gradientUnits="userSpaceOnUse"><stop offset="0.01" stop-color="#C1C1C1"></stop><stop offset="0.04" stop-color="#B0B0B0"></stop><stop offset="0.11" stop-color="#838383"></stop><stop offset="0.13" stop-color="#797979"></stop><stop offset="0.26" stop-color="#CFCFCF"></stop><stop offset="0.52" stop-color="#ECECEC"></stop><stop offset="0.77" stop-color="#797979"></stop><stop offset="0.95" stop-color="#BFBFBF"></stop></linearGradient><linearGradient id="paint46_linear_44_139" x1="658.336" y1="134.672" x2="343.304" y2="610.978" gradientUnits="userSpaceOnUse"><stop offset="0.01" stop-color="#C1C1C1"></stop><stop offset="0.04" stop-color="#B0B0B0"></stop><stop offset="0.11" stop-color="#838383"></stop><stop offset="0.13" stop-color="#797979"></stop><stop offset="0.26" stop-color="#CFCFCF"></stop><stop offset="0.52" stop-color="#ECECEC"></stop><stop offset="0.77" stop-color="#797979"></stop><stop offset="0.95" stop-color="#BFBFBF"></stop></linearGradient><linearGradient id="paint47_linear_44_139" x1="246.594" y1="66.0383" x2="488.224" y2="559.055" gradientUnits="userSpaceOnUse"><stop offset="0.01" stop-color="#C1C1C1"></stop><stop offset="0.04" stop-color="#B0B0B0"></stop><stop offset="0.11" stop-color="#838383"></stop><stop offset="0.13" stop-color="#797979"></stop><stop offset="0.26" stop-color="#CFCFCF"></stop><stop offset="0.52" stop-color="#ECECEC"></stop><stop offset="0.77" stop-color="#797979"></stop><stop offset="0.95" stop-color="#BFBFBF"></stop></linearGradient><linearGradient id="paint48_linear_44_139" x1="-2647.93" y1="649.828" x2="-2749.06" y2="1129.98" gradientUnits="userSpaceOnUse"><stop offset="0.01" stop-color="#C1C1C1"></stop><stop offset="0.04" stop-color="#B0B0B0"></stop><stop offset="0.11" stop-color="#838383"></stop><stop offset="0.13" stop-color="#797979"></stop><stop offset="0.26" stop-color="#CFCFCF"></stop><stop offset="0.52" stop-color="#ECECEC"></stop><stop offset="0.77" stop-color="#797979"></stop><stop offset="0.95" stop-color="#BFBFBF"></stop></linearGradient><linearGradient id="paint49_linear_44_139" x1="-25.8555" y1="-4722.28" x2="584.107" y2="-4410.24" gradientUnits="userSpaceOnUse"><stop offset="0.01" stop-color="#C1C1C1"></stop><stop offset="0.04" stop-color="#B0B0B0"></stop><stop offset="0.11" stop-color="#838383"></stop><stop offset="0.13" stop-color="#797979"></stop><stop offset="0.26" stop-color="#CFCFCF"></stop><stop offset="0.52" stop-color="#ECECEC"></stop><stop offset="0.77" stop-color="#797979"></stop><stop offset="0.95" stop-color="#BFBFBF"></stop></linearGradient><linearGradient id="paint50_linear_44_139" x1="-4663.78" y1="-217.303" x2="-4286.32" y2="250.945" gradientUnits="userSpaceOnUse"><stop offset="0.01" stop-color="#C1C1C1"></stop><stop offset="0.04" stop-color="#B0B0B0"></stop><stop offset="0.11" stop-color="#838383"></stop><stop offset="0.13" stop-color="#797979"></stop><stop offset="0.26" stop-color="#CFCFCF"></stop><stop offset="0.52" stop-color="#ECECEC"></stop><stop offset="0.77" stop-color="#797979"></stop><stop offset="0.95" stop-color="#BFBFBF"></stop></linearGradient><linearGradient id="paint51_linear_44_139" x1="1011.45" y1="584.252" x2="1255.72" y2="1076.56" gradientUnits="userSpaceOnUse"><stop offset="0.01" stop-color="#C1C1C1"></stop><stop offset="0.04" stop-color="#B0B0B0"></stop><stop offset="0.11" stop-color="#838383"></stop><stop offset="0.13" stop-color="#797979"></stop><stop offset="0.26" stop-color="#CFCFCF"></stop><stop offset="0.52" stop-color="#ECECEC"></stop><stop offset="0.77" stop-color="#797979"></stop><stop offset="0.95" stop-color="#BFBFBF"></stop></linearGradient><linearGradient id="paint52_linear_44_139" x1="194.729" y1="-888.201" x2="210.648" y2="-392.296" gradientUnits="userSpaceOnUse"><stop offset="0.01" stop-color="#C1C1C1"></stop><stop offset="0.04" stop-color="#B0B0B0"></stop><stop offset="0.11" stop-color="#838383"></stop><stop offset="0.13" stop-color="#797979"></stop><stop offset="0.26" stop-color="#CFCFCF"></stop><stop offset="0.52" stop-color="#ECECEC"></stop><stop offset="0.77" stop-color="#797979"></stop><stop offset="0.95" stop-color="#BFBFBF"></stop></linearGradient><linearGradient id="paint53_linear_44_139" x1="167.161" y1="118.412" x2="596.546" y2="570.868" gradientUnits="userSpaceOnUse"><stop offset="0.01" stop-color="#C1C1C1"></stop><stop offset="0.04" stop-color="#B0B0B0"></stop><stop offset="0.11" stop-color="#838383"></stop><stop offset="0.13" stop-color="#797979"></stop><stop offset="0.26" stop-color="#CFCFCF"></stop><stop offset="0.52" stop-color="#ECECEC"></stop><stop offset="0.77" stop-color="#797979"></stop><stop offset="0.95" stop-color="#BFBFBF"></stop></linearGradient><linearGradient id="paint54_linear_44_139" x1="238.753" y1="54.8362" x2="363.238" y2="537.73" gradientUnits="userSpaceOnUse"><stop offset="0.01" stop-color="#C1C1C1"></stop><stop offset="0.04" stop-color="#B0B0B0"></stop><stop offset="0.11" stop-color="#838383"></stop><stop offset="0.13" stop-color="#797979"></stop><stop offset="0.26" stop-color="#CFCFCF"></stop><stop offset="0.52" stop-color="#ECECEC"></stop><stop offset="0.77" stop-color="#797979"></stop><stop offset="0.95" stop-color="#BFBFBF"></stop></linearGradient><linearGradient id="paint55_linear_44_139" x1="183.611" y1="95.3536" x2="437.832" y2="589.567" gradientUnits="userSpaceOnUse"><stop offset="0.01" stop-color="#C1C1C1"></stop><stop offset="0.04" stop-color="#B0B0B0"></stop><stop offset="0.11" stop-color="#838383"></stop><stop offset="0.13" stop-color="#797979"></stop><stop offset="0.26" stop-color="#CFCFCF"></stop><stop offset="0.52" stop-color="#ECECEC"></stop><stop offset="0.77" stop-color="#797979"></stop><stop offset="0.95" stop-color="#BFBFBF"></stop></linearGradient><linearGradient id="paint56_linear_44_139" x1="238.983" y1="42.5783" x2="406.585" y2="529.034" gradientUnits="userSpaceOnUse"><stop offset="0.01" stop-color="#C1C1C1"></stop><stop offset="0.04" stop-color="#B0B0B0"></stop><stop offset="0.11" stop-color="#838383"></stop><stop offset="0.13" stop-color="#797979"></stop><stop offset="0.26" stop-color="#CFCFCF"></stop><stop offset="0.52" stop-color="#ECECEC"></stop><stop offset="0.77" stop-color="#797979"></stop><stop offset="0.95" stop-color="#BFBFBF"></stop></linearGradient><linearGradient id="paint57_linear_44_139" x1="626.62" y1="492.49" x2="631.36" y2="498.85" gradientUnits="userSpaceOnUse"><stop offset="0.01" stop-color="#C1C1C1"></stop><stop offset="0.04" stop-color="#B0B0B0"></stop><stop offset="0.11" stop-color="#838383"></stop><stop offset="0.13" stop-color="#797979"></stop><stop offset="0.26" stop-color="#CFCFCF"></stop><stop offset="0.52" stop-color="#ECECEC"></stop><stop offset="0.77" stop-color="#797979"></stop><stop offset="0.95" stop-color="#BFBFBF"></stop></linearGradient><clipPath id="clip0_44_139"><rect width="759.11" height="498.87" fill="white"></rect></clipPath></defs></svg> 