<?xml version="1.0" encoding="UTF-8"?> <svg xmlns="http://www.w3.org/2000/svg" width="71" height="71" viewBox="0 0 71 71" fill="none"><mask id="mask0_58_357" style="mask-type:alpha" maskUnits="userSpaceOnUse" x="0" y="0" width="71" height="71"><rect width="71" height="71" fill="#D9D9D9"></rect></mask><g mask="url(#mask0_58_357)"><path d="M17.0725 55.2313C16.9292 55.2322 16.7873 55.2044 16.655 55.1494C16.5228 55.0945 16.4029 55.0135 16.3025 54.9113C16.1632 54.769 16.0668 54.5904 16.0244 54.3958C15.9819 54.2013 15.9951 53.9987 16.0625 53.8113L19.0625 45.0713C16.7638 40.9067 16.0582 36.0483 17.0771 31.4018C18.0959 26.7554 20.7699 22.638 24.6002 19.8174C28.4306 16.9968 33.1561 15.6655 37.8956 16.0716C42.6351 16.4777 47.0651 18.5936 50.3598 22.0248C53.6545 25.456 55.5889 29.9682 55.8024 34.7203C56.0159 39.4724 54.494 44.1399 51.5203 47.8527C48.5466 51.5655 44.3241 54.0702 39.6402 54.8997C34.9562 55.7292 30.1304 54.827 26.0625 52.3613L17.3725 55.1813C17.2756 55.2132 17.1744 55.2301 17.0725 55.2313ZM26.2525 50.1113C26.4582 50.1105 26.6597 50.1696 26.8325 50.2813C30.4469 52.6064 34.7892 53.5236 39.0351 52.8588C43.2811 52.194 47.1352 49.9934 49.8659 46.6748C52.5967 43.3562 54.014 39.1506 53.8489 34.856C53.6838 30.5615 51.9477 26.4771 48.9702 23.378C45.9927 20.2788 41.981 18.3807 37.6966 18.0439C33.4121 17.707 29.1531 18.9549 25.7279 21.5507C22.3026 24.1464 19.9496 27.9094 19.1154 32.1253C18.2812 36.3413 19.0239 40.7168 21.2025 44.4213C21.281 44.5562 21.3297 44.7063 21.3452 44.8615C21.3608 45.0168 21.3428 45.1736 21.2925 45.3213L18.8025 52.4813L25.9225 50.1613C26.0298 50.1301 26.1407 50.1133 26.2525 50.1113ZM36.5625 47.0413C34.6264 47.045 32.7088 46.6651 30.9203 45.9236C29.1319 45.1822 27.508 44.0938 26.1425 42.7213C25.9409 42.5198 25.8277 42.2464 25.8277 41.9613C25.8277 41.6763 25.9409 41.4029 26.1425 41.2013C26.344 40.9998 26.6174 40.8865 26.9025 40.8865C27.1875 40.8865 27.4609 40.9998 27.6625 41.2013C28.8317 42.3712 30.2199 43.2992 31.7478 43.9323C33.2758 44.5655 34.9135 44.8914 36.5675 44.8914C38.2214 44.8914 39.8592 44.5655 41.3871 43.9323C42.9151 43.2992 44.3033 42.3712 45.4725 41.2013C45.5723 41.1022 45.6906 41.0237 45.8208 40.9703C45.9509 40.9168 46.0903 40.8896 46.231 40.8901C46.3717 40.8905 46.5109 40.9187 46.6407 40.973C46.7705 41.0272 46.8883 41.1065 46.9875 41.2063C47.0866 41.3061 47.1651 41.4245 47.2185 41.5546C47.272 41.6848 47.2992 41.8242 47.2987 41.9649C47.2983 42.1055 47.2701 42.2448 47.2158 42.3745C47.1616 42.5043 47.0823 42.6222 46.9825 42.7213C45.6152 44.0971 43.9882 45.1874 42.196 45.929C40.4038 46.6706 38.4821 47.0487 36.5425 47.0413H36.5625ZM28.9925 33.9613C28.3675 33.9613 27.7565 33.776 27.2369 33.4288C26.7172 33.0815 26.3122 32.588 26.073 32.0106C25.8338 31.4332 25.7713 30.7978 25.8932 30.1848C26.0151 29.5719 26.3161 29.0088 26.758 28.5669C27.2 28.1249 27.763 27.824 28.376 27.702C28.989 27.5801 29.6243 27.6427 30.2018 27.8819C30.7792 28.121 31.2727 28.5261 31.6199 29.0457C31.9672 29.5654 32.1525 30.1763 32.1525 30.8013C32.1512 31.2176 32.0679 31.6296 31.9074 32.0137C31.7468 32.3978 31.5122 32.7465 31.2169 33.0399C30.9217 33.3334 30.5715 33.5658 30.1863 33.7239C29.8012 33.8819 29.3888 33.9626 28.9725 33.9613H28.9925ZM28.9925 29.7813C28.7947 29.7813 28.6014 29.84 28.4369 29.9499C28.2725 30.0597 28.1443 30.2159 28.0686 30.3986C27.9929 30.5814 27.9731 30.7824 28.0117 30.9764C28.0503 31.1704 28.1455 31.3486 28.2854 31.4884C28.4252 31.6283 28.6034 31.7235 28.7974 31.7621C28.9914 31.8007 29.1924 31.7809 29.3752 31.7052C29.5579 31.6295 29.7141 31.5013 29.824 31.3369C29.9338 31.1724 29.9925 30.9791 29.9925 30.7813C29.9925 30.6483 29.966 30.5166 29.9145 30.394C29.863 30.2713 29.7875 30.1602 29.6925 30.0671C29.5976 29.9739 29.4849 29.9007 29.3613 29.8516C29.2377 29.8026 29.1055 29.7787 28.9725 29.7813H28.9925ZM44.1425 33.9213C43.5155 33.9313 42.8997 33.7544 42.3735 33.4132C41.8473 33.0721 41.4345 32.5821 41.1876 32.0057C40.9408 31.4292 40.871 30.7923 40.9872 30.1761C41.1035 29.5598 41.4004 28.9921 41.8403 28.5452C42.2802 28.0982 42.8431 27.7922 43.4574 27.6662C44.0717 27.5402 44.7096 27.5998 45.2899 27.8374C45.8703 28.075 46.3668 28.4799 46.7163 29.0006C47.0657 29.5213 47.2524 30.1342 47.2525 30.7613C47.2551 31.595 46.9272 32.3958 46.3405 32.9881C45.7538 33.5805 44.9562 33.916 44.1225 33.9213H44.1425ZM44.1425 29.7413C43.9447 29.7413 43.7514 29.8 43.5869 29.9099C43.4225 30.0197 43.2943 30.1759 43.2186 30.3587C43.1429 30.5414 43.1231 30.7424 43.1617 30.9364C43.2003 31.1304 43.2955 31.3086 43.4354 31.4484C43.5752 31.5883 43.7534 31.6835 43.9474 31.7221C44.1414 31.7607 44.3424 31.7409 44.5252 31.6652C44.7079 31.5895 44.8641 31.4613 44.9739 31.2969C45.0838 31.1324 45.1425 30.9391 45.1425 30.7413C45.1425 30.6083 45.116 30.4766 45.0645 30.354C45.013 30.2313 44.9375 30.1202 44.8426 30.0271C44.7476 29.9339 44.6349 29.8607 44.5113 29.8116C44.3877 29.7626 44.2555 29.7387 44.1225 29.7413H44.1425Z" fill="#A9FF59"></path><g filter="url(#filter0_f_58_357)"><path d="M17.0725 55.2313C16.9292 55.2322 16.7873 55.2044 16.655 55.1494C16.5228 55.0945 16.4029 55.0135 16.3025 54.9113C16.1632 54.769 16.0668 54.5904 16.0244 54.3958C15.9819 54.2013 15.9951 53.9987 16.0625 53.8113L19.0625 45.0713C16.7638 40.9067 16.0582 36.0483 17.0771 31.4018C18.0959 26.7554 20.7699 22.638 24.6002 19.8174C28.4306 16.9968 33.1561 15.6655 37.8956 16.0716C42.6351 16.4777 47.0651 18.5936 50.3598 22.0248C53.6545 25.456 55.5889 29.9682 55.8024 34.7203C56.0159 39.4724 54.494 44.1399 51.5203 47.8527C48.5466 51.5655 44.3241 54.0702 39.6402 54.8997C34.9562 55.7292 30.1304 54.827 26.0625 52.3613L17.3725 55.1813C17.2756 55.2132 17.1744 55.2301 17.0725 55.2313ZM26.2525 50.1113C26.4582 50.1105 26.6597 50.1696 26.8325 50.2813C30.4469 52.6064 34.7892 53.5236 39.0351 52.8588C43.2811 52.194 47.1352 49.9934 49.8659 46.6748C52.5967 43.3562 54.014 39.1506 53.8489 34.856C53.6838 30.5615 51.9477 26.4771 48.9702 23.378C45.9927 20.2788 41.981 18.3807 37.6966 18.0439C33.4121 17.707 29.1531 18.9549 25.7279 21.5507C22.3026 24.1464 19.9496 27.9094 19.1154 32.1253C18.2812 36.3413 19.0239 40.7168 21.2025 44.4213C21.281 44.5562 21.3297 44.7063 21.3452 44.8615C21.3608 45.0168 21.3428 45.1736 21.2925 45.3213L18.8025 52.4813L25.9225 50.1613C26.0298 50.1301 26.1407 50.1133 26.2525 50.1113ZM36.5625 47.0413C34.6264 47.045 32.7088 46.6651 30.9203 45.9236C29.1319 45.1822 27.508 44.0938 26.1425 42.7213C25.9409 42.5198 25.8277 42.2464 25.8277 41.9613C25.8277 41.6763 25.9409 41.4029 26.1425 41.2013C26.344 40.9998 26.6174 40.8865 26.9025 40.8865C27.1875 40.8865 27.4609 40.9998 27.6625 41.2013C28.8317 42.3712 30.2199 43.2992 31.7478 43.9323C33.2758 44.5655 34.9135 44.8914 36.5675 44.8914C38.2214 44.8914 39.8592 44.5655 41.3871 43.9323C42.9151 43.2992 44.3033 42.3712 45.4725 41.2013C45.5723 41.1022 45.6906 41.0237 45.8208 40.9703C45.9509 40.9168 46.0903 40.8896 46.231 40.8901C46.3717 40.8905 46.5109 40.9187 46.6407 40.973C46.7705 41.0272 46.8883 41.1065 46.9875 41.2063C47.0866 41.3061 47.1651 41.4245 47.2185 41.5546C47.272 41.6848 47.2992 41.8242 47.2987 41.9649C47.2983 42.1055 47.2701 42.2448 47.2158 42.3745C47.1616 42.5043 47.0823 42.6222 46.9825 42.7213C45.6152 44.0971 43.9882 45.1874 42.196 45.929C40.4038 46.6706 38.4821 47.0487 36.5425 47.0413H36.5625ZM28.9925 33.9613C28.3675 33.9613 27.7565 33.776 27.2369 33.4288C26.7172 33.0815 26.3122 32.588 26.073 32.0106C25.8338 31.4332 25.7713 30.7978 25.8932 30.1848C26.0151 29.5719 26.3161 29.0088 26.758 28.5669C27.2 28.1249 27.763 27.824 28.376 27.702C28.989 27.5801 29.6243 27.6427 30.2018 27.8819C30.7792 28.121 31.2727 28.5261 31.6199 29.0457C31.9672 29.5654 32.1525 30.1763 32.1525 30.8013C32.1512 31.2176 32.0679 31.6296 31.9074 32.0137C31.7468 32.3978 31.5122 32.7465 31.2169 33.0399C30.9217 33.3334 30.5715 33.5658 30.1863 33.7239C29.8012 33.8819 29.3888 33.9626 28.9725 33.9613H28.9925ZM28.9925 29.7813C28.7947 29.7813 28.6014 29.84 28.4369 29.9499C28.2725 30.0597 28.1443 30.2159 28.0686 30.3986C27.9929 30.5814 27.9731 30.7824 28.0117 30.9764C28.0503 31.1704 28.1455 31.3486 28.2854 31.4884C28.4252 31.6283 28.6034 31.7235 28.7974 31.7621C28.9914 31.8007 29.1924 31.7809 29.3752 31.7052C29.5579 31.6295 29.7141 31.5013 29.824 31.3369C29.9338 31.1724 29.9925 30.9791 29.9925 30.7813C29.9925 30.6483 29.966 30.5166 29.9145 30.394C29.863 30.2713 29.7875 30.1602 29.6925 30.0671C29.5976 29.9739 29.4849 29.9007 29.3613 29.8516C29.2377 29.8026 29.1055 29.7787 28.9725 29.7813H28.9925ZM44.1425 33.9213C43.5155 33.9313 42.8997 33.7544 42.3735 33.4132C41.8473 33.0721 41.4345 32.5821 41.1876 32.0057C40.9408 31.4292 40.871 30.7923 40.9872 30.1761C41.1035 29.5598 41.4004 28.9921 41.8403 28.5452C42.2802 28.0982 42.8431 27.7922 43.4574 27.6662C44.0717 27.5402 44.7096 27.5998 45.2899 27.8374C45.8703 28.075 46.3668 28.4799 46.7163 29.0006C47.0657 29.5213 47.2524 30.1342 47.2525 30.7613C47.2551 31.595 46.9272 32.3958 46.3405 32.9881C45.7538 33.5805 44.9562 33.916 44.1225 33.9213H44.1425ZM44.1425 29.7413C43.9447 29.7413 43.7514 29.8 43.5869 29.9099C43.4225 30.0197 43.2943 30.1759 43.2186 30.3587C43.1429 30.5414 43.1231 30.7424 43.1617 30.9364C43.2003 31.1304 43.2955 31.3086 43.4354 31.4484C43.5752 31.5883 43.7534 31.6835 43.9474 31.7221C44.1414 31.7607 44.3424 31.7409 44.5252 31.6652C44.7079 31.5895 44.8641 31.4613 44.9739 31.2969C45.0838 31.1324 45.1425 30.9391 45.1425 30.7413C45.1425 30.6083 45.116 30.4766 45.0645 30.354C45.013 30.2313 44.9375 30.1202 44.8426 30.0271C44.7476 29.9339 44.6349 29.8607 44.5113 29.8116C44.3877 29.7626 44.2555 29.7387 44.1225 29.7413H44.1425Z" fill="#A9FF59"></path></g></g><defs><filter id="filter0_f_58_357" x="-1.1" y="-1.1" width="74.0223" height="73.4314" filterUnits="userSpaceOnUse" color-interpolation-filters="sRGB"><feFlood flood-opacity="0" result="BackgroundImageFix"></feFlood><feBlend mode="normal" in="SourceGraphic" in2="BackgroundImageFix" result="shape"></feBlend><feGaussianBlur stdDeviation="8.55" result="effect1_foregroundBlur_58_357"></feGaussianBlur></filter></defs></svg> 