<?xml version="1.0" encoding="UTF-8"?> <svg xmlns="http://www.w3.org/2000/svg" width="176" height="176" viewBox="0 0 176 176" fill="none"><mask id="mask0_57_319" style="mask-type:alpha" maskUnits="userSpaceOnUse" x="0" y="0" width="176" height="176"><rect width="176" height="176" fill="#D9D9D9"></rect></mask><g mask="url(#mask0_57_319)"><path d="M155.865 72.4331C155.667 71.8058 155.275 71.2581 154.745 70.87C154.215 70.4819 153.575 70.2737 152.919 70.2756H105.585L90.9588 25.1506C90.7555 24.5254 90.36 23.9806 89.8291 23.5943C89.2982 23.208 88.6589 23 88.0029 23C87.3468 23 86.7075 23.208 86.1766 23.5943C85.6456 23.9806 85.2502 24.5254 85.0469 25.1506L70.4107 70.2756H23.0871C22.4337 70.2802 21.7983 70.4911 21.2713 70.8782C20.7443 71.2654 20.3523 71.8091 20.1511 72.4322C19.9499 73.0554 19.9496 73.7262 20.1504 74.3495C20.3512 74.9727 20.7427 75.5168 21.2695 75.9043L59.534 103.798L44.9074 148.923C44.703 149.547 44.7022 150.22 44.9052 150.844C45.1082 151.468 45.5044 152.011 46.0362 152.394C46.5659 152.78 47.2038 152.988 47.8586 152.988C48.5133 152.988 49.1513 152.78 49.6809 152.394L87.9455 124.51L126.21 152.394C126.739 152.785 127.378 152.997 128.036 153C128.693 153.003 129.334 152.796 129.866 152.41C130.399 152.023 130.795 151.477 130.997 150.851C131.2 150.224 131.198 149.549 130.993 148.923L116.366 103.798L154.631 75.9043C155.182 75.5355 155.599 74.9987 155.821 74.3734C156.044 73.7482 156.059 73.0678 155.865 72.4331ZM112.645 100.634C112.115 101.021 111.72 101.565 111.517 102.191C111.315 102.816 111.314 103.489 111.516 104.115L124.909 145.471L89.83 119.917C89.3012 119.525 88.6608 119.313 88.0029 119.313C87.3467 119.314 86.7075 119.522 86.1757 119.907L51.0776 145.471L64.4701 104.115C64.6723 103.489 64.672 102.816 64.4693 102.191C64.2665 101.565 63.8717 101.021 63.3413 100.634L28.2623 75.07H71.6447C72.3005 75.0702 72.9395 74.8626 73.4704 74.4768C74.0013 74.091 74.3969 73.5469 74.6007 72.9221L87.9933 31.5655L101.386 72.9221C101.59 73.5469 101.985 74.091 102.516 74.4768C103.047 74.8626 103.686 75.0702 104.342 75.07H147.724L112.645 100.634Z" fill="white"></path><g filter="url(#filter0_f_57_319)"><path d="M159.027 71.5528C158.82 70.8986 158.41 70.3274 157.856 69.9227C157.302 69.518 156.633 69.3008 155.947 69.3028H106.467L91.177 22.2428C90.9645 21.5908 90.5512 21.0227 89.9961 20.6198C89.4411 20.2169 88.7729 20 88.0871 20C87.4013 20 86.733 20.2169 86.178 20.6198C85.6229 21.0227 85.2096 21.5908 84.9971 22.2428L69.6971 69.3028H20.2271C19.5441 69.3076 18.8799 69.5275 18.329 69.9313C17.778 70.335 17.3683 70.9021 17.1579 71.5519C16.9476 72.2017 16.9473 72.9013 17.1572 73.5513C17.3671 74.2013 17.7764 74.7687 18.3271 75.1728L58.3271 104.263L43.0371 151.323C42.8234 151.973 42.8225 152.675 43.0347 153.326C43.2469 153.977 43.6611 154.543 44.2171 154.943C44.7707 155.345 45.4376 155.562 46.1221 155.562C46.8065 155.562 47.4734 155.345 48.0271 154.943L88.0271 125.863L128.027 154.943C128.58 155.35 129.248 155.572 129.935 155.574C130.622 155.577 131.293 155.362 131.849 154.959C132.406 154.556 132.82 153.987 133.031 153.333C133.243 152.679 133.242 151.975 133.027 151.323L117.737 104.263L157.737 75.1728C158.313 74.7883 158.749 74.2284 158.981 73.5764C159.214 72.9243 159.23 72.2147 159.027 71.5528ZM113.847 100.963C113.293 101.366 112.88 101.934 112.668 102.586C112.456 103.238 112.456 103.941 112.667 104.593L126.667 147.723L89.9971 121.073C89.4443 120.664 88.7748 120.443 88.0871 120.443C87.4011 120.444 86.7329 120.661 86.177 121.063L49.487 147.723L63.487 104.593C63.6984 103.941 63.6981 103.238 63.4861 102.586C63.2742 101.934 62.8615 101.366 62.3071 100.963L25.6371 74.3028H70.987C71.6725 74.303 72.3405 74.0865 72.8955 73.6842C73.4505 73.2818 73.8641 72.7144 74.0771 72.0628L88.0771 28.9328L102.077 72.0628C102.29 72.7144 102.704 73.2818 103.259 73.6842C103.814 74.0865 104.482 74.303 105.167 74.3028H150.517L113.847 100.963Z" fill="#FD05FF"></path><path d="M88.0869 22C88.3507 22 88.6078 22.0834 88.8213 22.2383C89.0347 22.3932 89.1936 22.6116 89.2754 22.8623V22.8613L104.565 69.9209L105.014 71.3027H155.953C156.213 71.302 156.467 71.3847 156.677 71.5381C156.882 71.6879 157.033 71.8981 157.113 72.1387H157.114C157.191 72.3894 157.186 72.6583 157.098 72.9053C157.01 73.1522 156.844 73.3641 156.626 73.5098L156.593 73.5322L156.561 73.5557L116.561 102.646L115.386 103.5L115.835 104.881L131.125 151.94L131.127 151.947C131.209 152.197 131.21 152.467 131.129 152.717C131.048 152.967 130.889 153.185 130.676 153.339C130.463 153.493 130.207 153.575 129.944 153.574C129.682 153.573 129.426 153.489 129.214 153.333L129.203 153.325L89.2031 124.245L88.0273 123.391L86.8506 124.245L46.8506 153.325C46.6388 153.479 46.3838 153.562 46.1221 153.562C45.8602 153.562 45.6045 153.479 45.3926 153.325L45.3838 153.318C45.1733 153.167 45.0169 152.952 44.9365 152.706C44.8561 152.459 44.8565 152.194 44.9375 151.947L44.9395 151.94L60.2295 104.881L60.6777 103.5L59.5029 102.646L19.5098 73.5605H19.5107C19.2989 73.4051 19.1413 73.1865 19.0605 72.9365C18.9799 72.6867 18.9797 72.4178 19.0605 72.168C19.1414 71.9182 19.2991 71.7002 19.5107 71.5449C19.7226 71.3896 19.9785 71.3046 20.2412 71.3027H71.1494L71.5986 69.9209L86.8984 22.8604C86.9804 22.6104 87.1397 22.3928 87.3525 22.2383C87.5659 22.0834 87.8232 22 88.0869 22ZM86.1748 28.3154L72.1758 71.4414C72.0939 71.6918 71.935 71.9098 71.7217 72.0645C71.5083 72.2192 71.251 72.3028 70.9873 72.3027H19.4854L24.4609 75.9209L61.1309 102.58C61.3441 102.735 61.5025 102.954 61.584 103.205C61.6552 103.424 61.6647 103.659 61.6113 103.882L61.584 103.977L47.585 147.105L45.6855 152.958L50.6631 149.341L87.3486 122.684C87.564 122.528 87.8231 122.443 88.0889 122.442C88.3474 122.443 88.5987 122.527 88.8066 122.681L88.8145 122.686L88.8213 122.69L125.491 149.341L130.47 152.958L128.569 147.105L114.569 103.976C114.488 103.725 114.489 103.456 114.57 103.205C114.642 102.986 114.772 102.791 114.946 102.642L115.023 102.58L151.693 75.9209L156.669 72.3027H105.166C104.903 72.3027 104.646 72.2191 104.433 72.0645C104.246 71.929 104.101 71.745 104.013 71.5332L103.979 71.4414L89.9795 28.3154L88.0771 22.4551L86.1748 28.3154Z" stroke="#D06CD1" stroke-width="4"></path></g></g><defs><filter id="filter0_f_57_319" x="3.3" y="6.3" width="169.568" height="162.974" filterUnits="userSpaceOnUse" color-interpolation-filters="sRGB"><feFlood flood-opacity="0" result="BackgroundImageFix"></feFlood><feBlend mode="normal" in="SourceGraphic" in2="BackgroundImageFix" result="shape"></feBlend><feGaussianBlur stdDeviation="6.85" result="effect1_foregroundBlur_57_319"></feGaussianBlur></filter></defs></svg> 