<?xml version="1.0" encoding="UTF-8"?> <svg xmlns="http://www.w3.org/2000/svg" width="4755" height="862" viewBox="0 0 4755 862" fill="none"><mask id="mask0_157_13" style="mask-type:alpha" maskUnits="userSpaceOnUse" x="0" y="0" width="4755" height="862"><rect width="4755" height="862" fill="#D9D9D9"></rect></mask><g mask="url(#mask0_157_13)"><path d="M826.662 342.463C823.687 333.575 815.987 327.1 806.725 325.675L560.8 288.1L450.612 53.375C446.487 44.6 437.662 39 427.975 39C418.287 39 409.475 44.6 405.337 53.375L295.15 288.1L49.2249 325.687C39.9624 327.1 32.2749 333.587 29.2874 342.475C26.3124 351.35 28.5499 361.15 35.0999 367.863L213.775 551.075L171.55 809.875C170 819.325 173.987 828.837 181.825 834.337C186.125 837.375 191.162 838.913 196.212 838.913C200.362 838.913 204.537 837.863 208.312 835.788L427.962 714.3L647.612 835.788C651.387 837.863 655.562 838.913 659.712 838.913C664.762 838.913 669.812 837.375 674.1 834.337C681.937 828.837 685.925 819.325 684.375 809.875L642.15 551.075L820.825 367.863C827.387 361.138 829.637 351.338 826.662 342.463Z" fill="#FFCC00"></path><path d="M1800.67 342.463C1797.7 333.575 1790 327.1 1780.73 325.675L1534.81 288.1L1424.62 53.375C1420.5 44.6 1411.67 39 1401.98 39C1392.3 39 1383.48 44.6 1379.35 53.375L1269.16 288.1L1023.23 325.687C1013.97 327.1 1006.28 333.587 1003.3 342.475C1000.32 351.35 1002.56 361.15 1009.11 367.863L1187.78 551.075L1145.56 809.875C1144.01 819.325 1148 828.837 1155.83 834.337C1160.13 837.375 1165.17 838.913 1170.22 838.913C1174.37 838.913 1178.55 837.863 1182.32 835.788L1401.97 714.3L1621.62 835.788C1625.4 837.863 1629.57 838.913 1633.72 838.913C1638.77 838.913 1643.82 837.375 1648.11 834.337C1655.95 828.837 1659.93 819.325 1658.38 809.875L1616.16 551.075L1794.83 367.863C1801.4 361.138 1803.65 351.338 1800.67 342.463Z" fill="#FFCC00"></path><path d="M2774.67 342.463C2771.7 333.575 2764 327.1 2754.73 325.675L2508.81 288.1L2398.62 53.375C2394.5 44.6 2385.67 39 2375.98 39C2366.3 39 2357.48 44.6 2353.35 53.375L2243.16 288.1L1997.23 325.687C1987.97 327.1 1980.28 333.587 1977.3 342.475C1974.32 351.35 1976.56 361.15 1983.11 367.863L2161.78 551.075L2119.56 809.875C2118.01 819.325 2122 828.837 2129.83 834.337C2134.13 837.375 2139.17 838.913 2144.22 838.913C2148.37 838.913 2152.55 837.863 2156.32 835.788L2375.97 714.3L2595.62 835.788C2599.4 837.863 2603.57 838.913 2607.72 838.913C2612.77 838.913 2617.82 837.375 2622.11 834.337C2629.95 828.837 2633.93 819.325 2632.38 809.875L2590.16 551.075L2768.83 367.863C2775.4 361.138 2777.65 351.338 2774.67 342.463Z" fill="#FFCC00"></path><path d="M3748.67 342.463C3745.7 333.575 3738 327.1 3728.73 325.675L3482.81 288.1L3372.62 53.375C3368.5 44.6 3359.67 39 3349.98 39C3340.3 39 3331.48 44.6 3327.35 53.375L3217.16 288.1L2971.23 325.687C2961.97 327.1 2954.28 333.587 2951.3 342.475C2948.32 351.35 2950.56 361.15 2957.11 367.863L3135.78 551.075L3093.56 809.875C3092.01 819.325 3096 828.837 3103.83 834.337C3108.13 837.375 3113.17 838.913 3118.22 838.913C3122.37 838.913 3126.55 837.863 3130.32 835.788L3349.97 714.3L3569.62 835.788C3573.4 837.863 3577.57 838.913 3581.72 838.913C3586.77 838.913 3591.82 837.375 3596.11 834.337C3603.95 828.837 3607.93 819.325 3606.38 809.875L3564.16 551.075L3742.83 367.863C3749.4 361.138 3751.65 351.338 3748.67 342.463Z" fill="#FFCC00"></path><path d="M4722.67 342.463C4719.7 333.575 4712 327.1 4702.73 325.675L4456.81 288.1L4346.62 53.375C4342.5 44.6 4333.67 39 4323.98 39C4314.3 39 4305.48 44.6 4301.35 53.375L4191.16 288.1L3945.23 325.687C3935.97 327.1 3928.28 333.587 3925.3 342.475C3922.32 351.35 3924.56 361.15 3931.11 367.863L4109.78 551.075L4067.56 809.875C4066.01 819.325 4070 828.837 4077.83 834.337C4082.13 837.375 4087.17 838.913 4092.22 838.913C4096.37 838.913 4100.55 837.863 4104.32 835.788L4323.97 714.3L4543.62 835.788C4547.4 837.863 4551.57 838.913 4555.72 838.913C4560.77 838.913 4565.82 837.375 4570.11 834.337C4577.95 828.837 4581.93 819.325 4580.38 809.875L4538.16 551.075L4716.83 367.863C4723.4 361.138 4725.65 351.338 4722.67 342.463Z" fill="#FFCC00"></path></g></svg> 