<?xml version="1.0" encoding="UTF-8"?> <svg xmlns="http://www.w3.org/2000/svg" width="121" height="121" viewBox="0 0 121 121" fill="none"><mask id="mask0_54_246" style="mask-type:alpha" maskUnits="userSpaceOnUse" x="0" y="0" width="120" height="120"><path d="M120 0H0V120H120V0Z" fill="#D9D9D9"></path></mask><g mask="url(#mask0_54_246)"><path d="M81.3333 12H38.6667C23.9391 12 12 23.9391 12 38.6667V81.3333C12 96.061 23.9391 108 38.6667 108H81.3333C96.0609 108 108 96.061 108 81.3333V38.6667C108 23.9391 96.0609 12 81.3333 12Z" fill="#27A7E7"></path><path d="M79.8746 44.2764L73.2346 74.8269C72.7333 76.9826 71.4273 77.5193 69.5712 76.5043L59.4533 69.2304L54.5719 73.8118C54.0313 74.3393 53.5802 74.7793 52.5383 74.7793L53.2659 64.7272L72.0166 48.197C72.8323 47.4886 71.839 47.0946 70.7499 47.8045L47.5689 62.0455L37.5893 58.9974C35.4189 58.3365 35.3796 56.8799 38.0419 55.8634L77.0756 41.1915C78.8829 40.5307 80.4639 41.5825 79.8746 44.2764Z" fill="white"></path></g></svg> 