<?xml version="1.0" encoding="UTF-8"?> <svg xmlns="http://www.w3.org/2000/svg" width="120" height="120" viewBox="0 0 120 120" fill="none"><mask id="mask0_54_241" style="mask-type:alpha" maskUnits="userSpaceOnUse" x="0" y="0" width="120" height="120"><rect width="120" height="120" fill="#D9D9D9"></rect></mask><g mask="url(#mask0_54_241)"><path d="M81.3333 12H38.6667C23.9391 12 12 23.9391 12 38.6667V81.3333C12 96.0609 23.9391 108 38.6667 108H81.3333C96.0609 108 108 96.0609 108 81.3333V38.6667C108 23.9391 96.0609 12 81.3333 12Z" fill="#75B611"></path><path d="M78.252 40.7223C73.4856 35.9724 67.1301 33.3335 60.4216 33.3335C46.4749 33.3335 35.1765 44.5927 35.1765 58.4908C35.1765 62.889 36.4123 67.2871 38.5307 70.9818L35 84.0002L48.4171 80.4818C52.1243 82.4167 56.1845 83.4724 60.4216 83.4724C74.3683 83.4724 85.6667 72.2132 85.6667 58.3151C85.4901 51.8058 83.0187 45.4724 78.252 40.7223ZM72.6027 67.4631C72.0731 68.8706 69.6016 70.278 68.3659 70.4538C67.3067 70.6298 65.8944 70.6298 64.4819 70.278C63.5992 69.926 62.3635 69.5743 60.9512 68.8706C54.5957 66.2316 50.5355 59.8983 50.1824 59.3706C49.8293 59.0186 47.5341 56.0279 47.5341 52.8612C47.5341 49.6946 49.1232 48.2871 49.6528 47.5834C50.1824 46.8799 50.8885 46.8799 51.4181 46.8799C51.7712 46.8799 52.3008 46.8799 52.6539 46.8799C53.0069 46.8799 53.5365 46.7039 54.0661 47.9354C54.5957 49.1668 55.8315 52.3335 56.008 52.5095C56.1845 52.8612 56.1845 53.2132 56.008 53.565C55.8315 53.917 55.6549 54.2687 55.3019 54.6204C54.9488 54.9724 54.5957 55.5002 54.4192 55.6762C54.0661 56.0279 53.7131 56.3799 54.0661 56.9076C54.4192 57.6114 55.6549 59.5466 57.5971 61.3058C60.0685 63.4167 62.0104 64.1204 62.7165 64.4724C63.4227 64.8242 63.7757 64.6484 64.1288 64.2964C64.4819 63.9447 65.7179 62.5372 66.0709 61.8335C66.424 61.1298 66.9536 61.3058 67.4832 61.4818C68.0128 61.6575 71.1904 63.241 71.72 63.5927C72.4261 63.9447 72.7792 64.1204 72.9557 64.2964C73.1323 64.8242 73.1325 66.0556 72.6027 67.4631Z" fill="white"></path></g></svg> 