<?xml version="1.0" encoding="UTF-8"?> <svg xmlns="http://www.w3.org/2000/svg" width="658" height="658" viewBox="0 0 658 658" fill="none"><mask id="mask0_90_76" style="mask-type:alpha" maskUnits="userSpaceOnUse" x="0" y="0" width="658" height="658"><rect width="658" height="658" fill="#D9D9D9"></rect></mask><g mask="url(#mask0_90_76)"><path d="M274.903 46.872C251.57 63.7304 96 183.43 96 378.148C96 408.788 102.035 439.131 113.761 467.441C125.488 495.751 142.675 521.471 164.342 543.138C186.009 564.805 211.731 581.995 240.041 593.718C267.533 605.108 296.94 611.128 326.677 611.465C254.265 610.051 196 550.908 196 478.158C196 471.575 196.477 465.101 197.399 458.775C197.438 458.398 197.486 458.018 197.543 457.638C208.723 382.511 277.843 318.731 311.27 291.831C321.95 283.238 336.72 283.238 347.403 291.831C380.827 318.731 449.943 382.511 461.123 457.638C461.18 458.018 461.23 458.398 461.267 458.775C462.19 465.101 462.667 471.575 462.667 478.158C462.667 550.908 404.4 610.051 331.99 611.465C361.727 611.128 391.133 605.108 418.627 593.718C446.937 581.995 472.657 564.805 494.323 543.138C515.993 521.471 533.18 495.751 544.907 467.441C556.233 440.091 562.25 410.841 562.647 381.261C562.66 380.878 562.667 380.495 562.667 380.108L562.663 379.055L562.667 378.151C561.787 236.795 466.147 159.648 448.71 146.755C447.077 145.546 444.903 145.56 443.27 146.769C436.277 151.94 416.803 167.374 395.89 193.071C393.503 196.002 388.817 195.441 387.203 192.025C347.91 108.873 293.477 58.4034 280.62 47.1954C278.96 45.7494 276.687 45.5834 274.903 46.872Z" fill="url(#paint0_linear_90_76)"></path></g><defs><linearGradient id="paint0_linear_90_76" x1="329.333" y1="46" x2="329.333" y2="611.465" gradientUnits="userSpaceOnUse"><stop stop-color="#F7D9FF"></stop><stop offset="1" stop-color="#F8F2FF"></stop></linearGradient></defs></svg> 