<?xml version="1.0" encoding="UTF-8"?> <svg xmlns="http://www.w3.org/2000/svg" width="40" height="40" viewBox="0 0 40 40" fill="none"><mask id="mask0_73_208" style="mask-type:alpha" maskUnits="userSpaceOnUse" x="0" y="0" width="40" height="40"><rect width="40" height="40" fill="#D9D9D9"></rect></mask><g mask="url(#mask0_73_208)"><path d="M20.3714 33.7429C17.7268 33.7429 15.1416 32.9586 12.9427 31.4894C10.7437 30.0201 9.0299 27.9318 8.01785 25.4885C7.00579 23.0452 6.74099 20.3566 7.25693 17.7628C7.77287 15.169 9.04638 12.7864 10.9164 10.9164C12.7864 9.04638 15.169 7.77287 17.7628 7.25693C20.3566 6.74099 23.0452 7.00579 25.4885 8.01785C27.9318 9.0299 30.0201 10.7437 31.4894 12.9427C32.9586 15.1416 33.7429 17.7268 33.7429 20.3714C33.739 23.9166 32.329 27.3154 29.8222 29.8222C27.3154 32.329 23.9166 33.739 20.3714 33.7429V33.7429ZM20.3714 9.22858C18.1676 9.22858 16.0132 9.88209 14.1808 11.1065C12.3484 12.3309 10.9202 14.0712 10.0768 16.1072C9.2334 18.1433 9.01273 20.3838 9.44268 22.5453C9.87263 24.7068 10.9339 26.6923 12.4922 28.2506C14.0506 29.809 16.0361 30.8702 18.1976 31.3002C20.3591 31.7301 22.5995 31.5095 24.6356 30.6661C26.6717 29.8227 28.412 28.3945 29.6364 26.5621C30.8608 24.7296 31.5143 22.5753 31.5143 20.3714C31.511 17.4172 30.336 14.5848 28.247 12.4958C26.1581 10.4068 23.3257 9.23182 20.3714 9.22858V9.22858ZM15.9143 22.6C15.7404 22.5992 15.5687 22.6392 15.413 22.7166C15.2573 22.7941 15.1219 22.9069 15.0176 23.046C14.9133 23.1852 14.8431 23.3468 14.8124 23.518C14.7818 23.6892 14.7917 23.8652 14.8412 24.0319C15.2405 25.1991 15.9827 26.2186 16.9707 26.9572C17.9588 27.6958 19.1468 28.119 20.3792 28.1714C21.6122 28.1228 22.8014 27.701 23.7895 26.9618C24.7776 26.2227 25.518 25.201 25.9128 24.0319C25.9574 23.8654 25.9636 23.691 25.9309 23.5218C25.8983 23.3526 25.8276 23.193 25.7243 23.0551C25.6209 22.9172 25.4876 22.8046 25.3344 22.7258C25.1811 22.6469 25.012 22.6039 24.8397 22.6H15.9143ZM13.6857 18.1429C13.6857 19.2571 14.683 19.2571 15.9143 19.2571C17.1456 19.2571 18.1429 19.2571 18.1429 18.1429C18.1429 17.5518 17.9081 16.985 17.4901 16.567C17.0722 16.1491 16.5053 15.9143 15.9143 15.9143C15.3232 15.9143 14.7564 16.1491 14.3385 16.567C13.9205 16.985 13.6857 17.5518 13.6857 18.1429V18.1429ZM22.6 18.1429C22.6 19.2571 23.5973 19.2571 24.8286 19.2571C26.0599 19.2571 27.0571 19.2571 27.0571 18.1429C27.0571 17.5518 26.8224 16.985 26.4044 16.567C25.9865 16.1491 25.4196 15.9143 24.8286 15.9143C24.2375 15.9143 23.6707 16.1491 23.2527 16.567C22.8348 16.985 22.6 17.5518 22.6 18.1429Z" fill="white"></path><g filter="url(#filter0_f_73_208)"><path d="M20.3714 33.7429C17.7268 33.7429 15.1416 32.9586 12.9427 31.4894C10.7437 30.0201 9.0299 27.9318 8.01785 25.4885C7.00579 23.0452 6.74099 20.3566 7.25693 17.7628C7.77287 15.169 9.04638 12.7864 10.9164 10.9164C12.7864 9.04638 15.169 7.77287 17.7628 7.25693C20.3566 6.74099 23.0452 7.00579 25.4885 8.01785C27.9318 9.0299 30.0201 10.7437 31.4894 12.9427C32.9586 15.1416 33.7429 17.7268 33.7429 20.3714C33.739 23.9166 32.329 27.3154 29.8222 29.8222C27.3154 32.329 23.9166 33.739 20.3714 33.7429V33.7429ZM20.3714 9.22858C18.1676 9.22858 16.0132 9.88209 14.1808 11.1065C12.3484 12.3309 10.9202 14.0712 10.0768 16.1072C9.2334 18.1433 9.01273 20.3838 9.44268 22.5453C9.87263 24.7068 10.9339 26.6923 12.4922 28.2506C14.0506 29.809 16.0361 30.8702 18.1976 31.3002C20.3591 31.7301 22.5995 31.5095 24.6356 30.6661C26.6717 29.8227 28.412 28.3945 29.6364 26.5621C30.8608 24.7296 31.5143 22.5753 31.5143 20.3714C31.511 17.4172 30.336 14.5848 28.247 12.4958C26.1581 10.4068 23.3257 9.23182 20.3714 9.22858V9.22858ZM15.9143 22.6C15.7404 22.5992 15.5687 22.6392 15.413 22.7166C15.2573 22.7941 15.1219 22.9069 15.0176 23.046C14.9133 23.1852 14.8431 23.3468 14.8124 23.518C14.7818 23.6892 14.7917 23.8652 14.8412 24.0319C15.2405 25.1991 15.9827 26.2186 16.9707 26.9572C17.9588 27.6958 19.1468 28.119 20.3792 28.1714C21.6122 28.1228 22.8014 27.701 23.7895 26.9618C24.7776 26.2227 25.518 25.201 25.9128 24.0319C25.9574 23.8654 25.9636 23.691 25.9309 23.5218C25.8983 23.3526 25.8276 23.193 25.7243 23.0551C25.6209 22.9172 25.4876 22.8046 25.3344 22.7258C25.1811 22.6469 25.012 22.6039 24.8397 22.6H15.9143ZM13.6857 18.1429C13.6857 19.2571 14.683 19.2571 15.9143 19.2571C17.1456 19.2571 18.1429 19.2571 18.1429 18.1429C18.1429 17.5518 17.9081 16.985 17.4901 16.567C17.0722 16.1491 16.5053 15.9143 15.9143 15.9143C15.3232 15.9143 14.7564 16.1491 14.3385 16.567C13.9205 16.985 13.6857 17.5518 13.6857 18.1429V18.1429ZM22.6 18.1429C22.6 19.2571 23.5973 19.2571 24.8286 19.2571C26.0599 19.2571 27.0571 19.2571 27.0571 18.1429C27.0571 17.5518 26.8224 16.985 26.4044 16.567C25.9865 16.1491 25.4196 15.9143 24.8286 15.9143C24.2375 15.9143 23.6707 16.1491 23.2527 16.567C22.8348 16.985 22.6 17.5518 22.6 18.1429Z" fill="#FC00FF"></path></g></g><defs><filter id="filter0_f_73_208" x="3" y="3" width="34.7429" height="34.7427" filterUnits="userSpaceOnUse" color-interpolation-filters="sRGB"><feFlood flood-opacity="0" result="BackgroundImageFix"></feFlood><feBlend mode="normal" in="SourceGraphic" in2="BackgroundImageFix" result="shape"></feBlend><feGaussianBlur stdDeviation="2" result="effect1_foregroundBlur_73_208"></feGaussianBlur></filter></defs></svg> 