<?xml version="1.0" encoding="UTF-8"?> <svg xmlns="http://www.w3.org/2000/svg" width="40" height="40" viewBox="0 0 40 40" fill="none"><mask id="mask0_73_210" style="mask-type:alpha" maskUnits="userSpaceOnUse" x="0" y="0" width="40" height="40"><rect width="40" height="40" fill="#D9D9D9"></rect></mask><g mask="url(#mask0_73_210)"><path d="M17 32.0068H9C8.73478 32.0068 8.48043 31.9015 8.29289 31.7139C8.10536 31.5264 8 31.272 8 31.0068C8 30.7416 8.10536 30.4873 8.29289 30.2997C8.48043 30.1122 8.73478 30.0068 9 30.0068H17C17.2652 30.0068 17.5196 30.1122 17.7071 30.2997C17.8946 30.4873 18 30.7416 18 31.0068C18 31.272 17.8946 31.5264 17.7071 31.7139C17.5196 31.9015 17.2652 32.0068 17 32.0068Z" fill="white"></path><path d="M15 28.0073H9C8.73478 28.0073 8.48043 27.902 8.29289 27.7144C8.10536 27.5269 8 27.2725 8 27.0073C8 26.7421 8.10536 26.4878 8.29289 26.3002C8.48043 26.1127 8.73478 26.0073 9 26.0073H15C15.2652 26.0073 15.5196 26.1127 15.7071 26.3002C15.8946 26.4878 16 26.7421 16 27.0073C16 27.2725 15.8946 27.5269 15.7071 27.7144C15.5196 27.902 15.2652 28.0073 15 28.0073Z" fill="white"></path><path d="M13 24.0078H9C8.73478 24.0078 8.48043 23.9025 8.29289 23.7149C8.10536 23.5274 8 23.273 8 23.0078C8 22.7426 8.10536 22.4882 8.29289 22.3007C8.48043 22.1132 8.73478 22.0078 9 22.0078H13C13.2652 22.0078 13.5196 22.1132 13.7071 22.3007C13.8946 22.4882 14 22.7426 14 23.0078C14 23.273 13.8946 23.5274 13.7071 23.7149C13.5196 23.9025 13.2652 24.0078 13 24.0078Z" fill="white"></path><path d="M21.0002 31.9617C20.735 31.9735 20.476 31.8795 20.2801 31.7003C20.0842 31.5211 19.9675 31.2714 19.9557 31.0062C19.9439 30.741 20.0379 30.4819 20.2171 30.2861C20.3963 30.0902 20.646 29.9735 20.9112 29.9617C22.8037 29.7885 24.6076 29.0797 26.1117 27.9183C27.6159 26.7568 28.7579 25.1908 29.4041 23.4037C30.0503 21.6166 30.1739 19.6824 29.7604 17.8275C29.347 15.9727 28.4135 14.2741 27.0695 12.9306C25.7254 11.5872 24.0264 10.6545 22.1713 10.2419C20.3163 9.82925 18.3821 9.95374 16.5953 10.6008C14.8085 11.2478 13.243 12.3906 12.0822 13.8952C10.9215 15.3999 10.2135 17.2042 10.0412 19.0967C10.0174 19.3609 9.88953 19.6047 9.68586 19.7746C9.4822 19.9445 9.21938 20.0266 8.95523 20.0027C8.69107 19.9788 8.44722 19.851 8.27731 19.6473C8.1074 19.4437 8.02536 19.1809 8.04923 18.9167C8.32812 15.84 9.78283 12.9894 12.1106 10.9583C14.4383 8.92714 17.4597 7.87197 20.5458 8.01242C23.6319 8.15287 26.5449 9.47811 28.6785 11.7123C30.8121 13.9464 32.0019 16.9174 32.0002 20.0067C32.0155 23.005 30.9016 25.8993 28.8801 28.1137C26.8586 30.3281 24.0775 31.7005 21.0902 31.9577C21.0602 31.9607 21.0292 31.9617 21.0002 31.9617Z" fill="white"></path><path d="M20.0002 14.0073C19.735 14.0073 19.4807 14.1127 19.2931 14.3002C19.1056 14.4878 19.0002 14.7421 19.0002 15.0073V20.0073C19.0003 20.2725 19.1057 20.5268 19.2932 20.7143L22.2932 23.7143C22.4818 23.8965 22.7344 23.9973 22.9966 23.995C23.2588 23.9927 23.5097 23.8876 23.6951 23.7021C23.8805 23.5167 23.9856 23.2659 23.9879 23.0037C23.9902 22.7415 23.8894 22.4889 23.7072 22.3003L21.0002 19.5933V15.0073C21.0002 14.7421 20.8949 14.4878 20.7074 14.3002C20.5198 14.1127 20.2655 14.0073 20.0002 14.0073Z" fill="white"></path><g filter="url(#filter0_f_73_210)"><path d="M17 32.0068H9C8.73478 32.0068 8.48043 31.9015 8.29289 31.7139C8.10536 31.5264 8 31.272 8 31.0068C8 30.7416 8.10536 30.4873 8.29289 30.2997C8.48043 30.1122 8.73478 30.0068 9 30.0068H17C17.2652 30.0068 17.5196 30.1122 17.7071 30.2997C17.8946 30.4873 18 30.7416 18 31.0068C18 31.272 17.8946 31.5264 17.7071 31.7139C17.5196 31.9015 17.2652 32.0068 17 32.0068Z" fill="#08C7FF"></path><path d="M15 28.0073H9C8.73478 28.0073 8.48043 27.902 8.29289 27.7144C8.10536 27.5269 8 27.2725 8 27.0073C8 26.7421 8.10536 26.4878 8.29289 26.3002C8.48043 26.1127 8.73478 26.0073 9 26.0073H15C15.2652 26.0073 15.5196 26.1127 15.7071 26.3002C15.8946 26.4878 16 26.7421 16 27.0073C16 27.2725 15.8946 27.5269 15.7071 27.7144C15.5196 27.902 15.2652 28.0073 15 28.0073Z" fill="#08C7FF"></path><path d="M13 24.0078H9C8.73478 24.0078 8.48043 23.9025 8.29289 23.7149C8.10536 23.5274 8 23.273 8 23.0078C8 22.7426 8.10536 22.4882 8.29289 22.3007C8.48043 22.1132 8.73478 22.0078 9 22.0078H13C13.2652 22.0078 13.5196 22.1132 13.7071 22.3007C13.8946 22.4882 14 22.7426 14 23.0078C14 23.273 13.8946 23.5274 13.7071 23.7149C13.5196 23.9025 13.2652 24.0078 13 24.0078Z" fill="#08C7FF"></path><path d="M21.0002 31.9617C20.735 31.9735 20.476 31.8795 20.2801 31.7003C20.0842 31.5211 19.9675 31.2714 19.9557 31.0062C19.9439 30.741 20.0379 30.4819 20.2171 30.2861C20.3963 30.0902 20.646 29.9735 20.9112 29.9617C22.8037 29.7885 24.6076 29.0797 26.1117 27.9183C27.6159 26.7568 28.7579 25.1908 29.4041 23.4037C30.0503 21.6166 30.1739 19.6824 29.7604 17.8275C29.347 15.9727 28.4135 14.2741 27.0695 12.9306C25.7254 11.5872 24.0264 10.6545 22.1713 10.2419C20.3163 9.82925 18.3821 9.95374 16.5953 10.6008C14.8085 11.2478 13.243 12.3906 12.0822 13.8952C10.9215 15.3999 10.2135 17.2042 10.0412 19.0967C10.0174 19.3609 9.88953 19.6047 9.68586 19.7746C9.4822 19.9445 9.21938 20.0266 8.95523 20.0027C8.69107 19.9788 8.44722 19.851 8.27731 19.6473C8.1074 19.4437 8.02536 19.1809 8.04923 18.9167C8.32812 15.84 9.78283 12.9894 12.1106 10.9583C14.4383 8.92714 17.4597 7.87197 20.5458 8.01242C23.6319 8.15287 26.5449 9.47811 28.6785 11.7123C30.8121 13.9464 32.0019 16.9174 32.0002 20.0067C32.0155 23.005 30.9016 25.8993 28.8801 28.1137C26.8586 30.3281 24.0775 31.7005 21.0902 31.9577C21.0602 31.9607 21.0292 31.9617 21.0002 31.9617Z" fill="#08C7FF"></path><path d="M20.0002 14.0073C19.735 14.0073 19.4807 14.1127 19.2931 14.3002C19.1056 14.4878 19.0002 14.7421 19.0002 15.0073V20.0073C19.0003 20.2725 19.1057 20.5268 19.2932 20.7143L22.2932 23.7143C22.4818 23.8965 22.7344 23.9973 22.9966 23.995C23.2588 23.9927 23.5097 23.8876 23.6951 23.7021C23.8805 23.5167 23.9856 23.2659 23.9879 23.0037C23.9902 22.7415 23.8894 22.4889 23.7072 22.3003L21.0002 19.5933V15.0073C21.0002 14.7421 20.8949 14.4878 20.7074 14.3002C20.5198 14.1127 20.2655 14.0073 20.0002 14.0073Z" fill="#08C7FF"></path></g></g><defs><filter id="filter0_f_73_210" x="2.9" y="2.9" width="34.2002" height="34.2068" filterUnits="userSpaceOnUse" color-interpolation-filters="sRGB"><feFlood flood-opacity="0" result="BackgroundImageFix"></feFlood><feBlend mode="normal" in="SourceGraphic" in2="BackgroundImageFix" result="shape"></feBlend><feGaussianBlur stdDeviation="2.55" result="effect1_foregroundBlur_73_210"></feGaussianBlur></filter></defs></svg> 