<?xml version="1.0" encoding="UTF-8"?> <svg xmlns="http://www.w3.org/2000/svg" width="35" height="35" viewBox="0 0 35 35" fill="none"><mask id="mask0_73_214" style="mask-type:alpha" maskUnits="userSpaceOnUse" x="0" y="0" width="35" height="35"><rect width="35" height="35" fill="#D9D9D9"></rect></mask><g mask="url(#mask0_73_214)"><path d="M25 5.93506H11C9.6744 5.93665 8.40356 6.46394 7.46622 7.40128C6.52888 8.33862 6.00159 9.60946 6 10.9351V24.9351C6.00159 26.2607 6.52888 27.5315 7.46622 28.4688C8.40356 29.4062 9.6744 29.9335 11 29.9351H25C26.3256 29.9335 27.5964 29.4062 28.5338 28.4688C29.4711 27.5315 29.9984 26.2607 30 24.9351V10.9351C29.9984 9.60946 29.4711 8.33862 28.5338 7.40128C27.5964 6.46394 26.3256 5.93665 25 5.93506ZM11 7.93506H25C25.7956 7.93506 26.5587 8.25113 27.1213 8.81374C27.6839 9.37635 28 10.1394 28 10.9351V24.9351C27.9983 25.3805 27.8957 25.8199 27.7 26.2201L18.537 17.0571C18.0727 16.5926 17.5214 16.2242 16.9147 15.9729C16.308 15.7215 15.6577 15.5921 15.001 15.5921C14.3443 15.5921 13.694 15.7215 13.0873 15.9729C12.4806 16.2242 11.9293 16.5926 11.465 17.0571L8 20.5211V10.9351C8 10.1394 8.31607 9.37635 8.87868 8.81374C9.44129 8.25113 10.2044 7.93506 11 7.93506ZM11 27.9351C10.2044 27.9351 9.44129 27.619 8.87868 27.0564C8.31607 26.4938 8 25.7307 8 24.9351V23.3491L12.878 18.4711C13.1566 18.1923 13.4874 17.9711 13.8515 17.8202C14.2156 17.6694 14.6059 17.5917 15 17.5917C15.3941 17.5917 15.7844 17.6694 16.1485 17.8202C16.5126 17.9711 16.8434 18.1923 17.122 18.4711L26.285 27.6351C25.8848 27.8308 25.4455 27.9333 25 27.9351H11Z" fill="white"></path><path d="M22.0002 16.4346C22.6925 16.4346 23.3692 16.2293 23.9447 15.8447C24.5203 15.4601 24.9689 14.9135 25.2338 14.274C25.4987 13.6344 25.568 12.9307 25.433 12.2518C25.2979 11.5728 24.9646 10.9492 24.4751 10.4597C23.9856 9.97021 23.362 9.63687 22.6831 9.50182C22.0041 9.36678 21.3004 9.43609 20.6609 9.70099C20.0213 9.9659 19.4747 10.4145 19.0901 10.9901C18.7055 11.5656 18.5002 12.2423 18.5002 12.9346C18.5002 13.8628 18.869 14.7531 19.5254 15.4094C20.1817 16.0658 21.072 16.4346 22.0002 16.4346ZM22.0002 11.4346C22.2969 11.4346 22.5869 11.5225 22.8336 11.6874C23.0803 11.8522 23.2725 12.0865 23.3861 12.3605C23.4996 12.6346 23.5293 12.9362 23.4714 13.2272C23.4135 13.5182 23.2707 13.7855 23.0609 13.9952C22.8511 14.205 22.5839 14.3479 22.2929 14.4058C22.0019 14.4636 21.7003 14.4339 21.4262 14.3204C21.1521 14.2069 20.9179 14.0146 20.753 13.7679C20.5882 13.5213 20.5002 13.2312 20.5002 12.9346C20.5002 12.5367 20.6583 12.1552 20.9396 11.8739C21.2209 11.5926 21.6024 11.4346 22.0002 11.4346Z" fill="white"></path><g filter="url(#filter0_f_73_214)"><path d="M25 5.93506H11C9.6744 5.93665 8.40356 6.46394 7.46622 7.40128C6.52888 8.33862 6.00159 9.60946 6 10.9351V24.9351C6.00159 26.2607 6.52888 27.5315 7.46622 28.4688C8.40356 29.4062 9.6744 29.9335 11 29.9351H25C26.3256 29.9335 27.5964 29.4062 28.5338 28.4688C29.4711 27.5315 29.9984 26.2607 30 24.9351V10.9351C29.9984 9.60946 29.4711 8.33862 28.5338 7.40128C27.5964 6.46394 26.3256 5.93665 25 5.93506ZM11 7.93506H25C25.7956 7.93506 26.5587 8.25113 27.1213 8.81374C27.6839 9.37635 28 10.1394 28 10.9351V24.9351C27.9983 25.3805 27.8957 25.8199 27.7 26.2201L18.537 17.0571C18.0727 16.5926 17.5214 16.2242 16.9147 15.9729C16.308 15.7215 15.6577 15.5921 15.001 15.5921C14.3443 15.5921 13.694 15.7215 13.0873 15.9729C12.4806 16.2242 11.9293 16.5926 11.465 17.0571L8 20.5211V10.9351C8 10.1394 8.31607 9.37635 8.87868 8.81374C9.44129 8.25113 10.2044 7.93506 11 7.93506ZM11 27.9351C10.2044 27.9351 9.44129 27.619 8.87868 27.0564C8.31607 26.4938 8 25.7307 8 24.9351V23.3491L12.878 18.4711C13.1566 18.1923 13.4874 17.9711 13.8515 17.8202C14.2156 17.6694 14.6059 17.5917 15 17.5917C15.3941 17.5917 15.7844 17.6694 16.1485 17.8202C16.5126 17.9711 16.8434 18.1923 17.122 18.4711L26.285 27.6351C25.8848 27.8308 25.4455 27.9333 25 27.9351H11Z" fill="#6100FF" fill-opacity="0.9"></path><path d="M22.0002 16.4346C22.6925 16.4346 23.3692 16.2293 23.9447 15.8447C24.5203 15.4601 24.9689 14.9135 25.2338 14.274C25.4987 13.6344 25.568 12.9307 25.433 12.2518C25.2979 11.5728 24.9646 10.9492 24.4751 10.4597C23.9856 9.97021 23.362 9.63687 22.6831 9.50182C22.0041 9.36678 21.3004 9.43609 20.6609 9.70099C20.0213 9.9659 19.4747 10.4145 19.0901 10.9901C18.7055 11.5656 18.5002 12.2423 18.5002 12.9346C18.5002 13.8628 18.869 14.7531 19.5254 15.4094C20.1817 16.0658 21.072 16.4346 22.0002 16.4346ZM22.0002 11.4346C22.2969 11.4346 22.5869 11.5225 22.8336 11.6874C23.0803 11.8522 23.2725 12.0865 23.3861 12.3605C23.4996 12.6346 23.5293 12.9362 23.4714 13.2272C23.4135 13.5182 23.2707 13.7855 23.0609 13.9952C22.8511 14.205 22.5839 14.3479 22.2929 14.4058C22.0019 14.4636 21.7003 14.4339 21.4262 14.3204C21.1521 14.2069 20.9179 14.0146 20.753 13.7679C20.5882 13.5213 20.5002 13.2312 20.5002 12.9346C20.5002 12.5367 20.6583 12.1552 20.9396 11.8739C21.2209 11.5926 21.6024 11.4346 22.0002 11.4346Z" fill="#6100FF" fill-opacity="0.9"></path></g></g><defs><filter id="filter0_f_73_214" x="-1.3" y="-1.36494" width="38.6" height="38.6" filterUnits="userSpaceOnUse" color-interpolation-filters="sRGB"><feFlood flood-opacity="0" result="BackgroundImageFix"></feFlood><feBlend mode="normal" in="SourceGraphic" in2="BackgroundImageFix" result="shape"></feBlend><feGaussianBlur stdDeviation="3.65" result="effect1_foregroundBlur_73_214"></feGaussianBlur></filter></defs></svg> 