<?xml version="1.0" encoding="UTF-8"?> <svg xmlns="http://www.w3.org/2000/svg" width="40" height="40" viewBox="0 0 40 40" fill="none"><mask id="mask0_73_212" style="mask-type:alpha" maskUnits="userSpaceOnUse" x="0" y="0" width="40" height="40"><rect width="40" height="40" fill="#D9D9D9"></rect></mask><g mask="url(#mask0_73_212)"><path d="M26.7572 23.9353C26.0686 23.9336 25.3864 24.0684 24.7502 24.3319C24.1139 24.5954 23.5362 24.9823 23.0502 25.4703C21.6383 26.8903 19.9586 28.0161 18.1086 28.7826C16.2585 29.549 14.2748 29.9408 12.2722 29.9353H11.1222C10.9003 29.9356 10.6833 29.8701 10.4987 29.747C10.3141 29.6239 10.1702 29.4488 10.0851 29.2438C10.0001 29.0388 9.97782 28.8133 10.0211 28.5956C10.0644 28.378 10.1713 28.1781 10.3282 28.0213L11.0212 27.3283C12.9441 27.2291 14.7616 26.4195 16.1212 25.0563L20.4472 20.7353C20.8694 20.8487 21.3026 20.9158 21.7392 20.9353C21.8252 20.9353 21.9122 20.9353 22.0002 20.9353C23.5924 20.934 25.1192 20.3019 26.2462 19.1773L27.2462 18.1773C27.8334 17.589 28.2922 16.8854 28.5935 16.1108C28.8949 15.3363 29.0324 14.5076 28.9972 13.6773C28.9639 12.8432 28.7553 12.0256 28.385 11.2775C28.0148 10.5294 27.4911 9.86761 26.8482 9.33525C25.6471 8.38392 24.1354 7.9128 22.6064 8.01332C21.0775 8.11384 19.6405 8.77885 18.5742 9.87925L17.9412 10.5133C17.1762 11.2755 16.6189 12.2209 16.3224 13.2594C16.0259 14.2979 16 15.3949 16.2472 16.4463L11.8792 20.8143C10.5153 22.1734 9.70551 23.9912 9.60724 25.9143L8.91424 26.6073C8.47765 27.0438 8.18035 27.6 8.05993 28.2056C7.93952 28.8111 8.00141 29.4387 8.23778 30.0091C8.47414 30.5795 8.87436 31.0669 9.3878 31.4098C9.90125 31.7526 10.5048 31.9355 11.1222 31.9353H12.2722C14.5374 31.9414 16.7813 31.4982 18.8741 30.6314C20.9668 29.7646 22.8669 28.4913 24.4642 26.8853C24.9177 26.4318 25.4955 26.123 26.1244 25.9979C26.7533 25.8728 27.4053 25.9369 27.9978 26.1822C28.5903 26.4275 29.0968 26.843 29.4532 27.3761C29.8096 27.9092 30 28.536 30.0002 29.1773V30.9353C30.0002 31.2005 30.1056 31.4548 30.2931 31.6424C30.4807 31.8299 30.735 31.9353 31.0002 31.9353C31.2655 31.9353 31.5198 31.8299 31.7073 31.6424C31.8949 31.4548 32.0002 31.2005 32.0002 30.9353V29.1773C31.9984 27.7874 31.4454 26.455 30.4625 25.4723C29.4796 24.4896 28.1471 23.9368 26.7572 23.9353ZM19.3572 11.9233L19.9902 11.2893C20.8116 10.4639 21.9259 9.99664 23.0902 9.98925C23.9917 9.98047 24.8671 10.2912 25.5612 10.8663C25.9907 11.2209 26.3408 11.6619 26.5887 12.1607C26.8366 12.6594 26.9768 13.2048 27.0002 13.7613C27.0233 14.3148 26.9316 14.8671 26.7307 15.3834C26.5299 15.8997 26.2243 16.3688 25.8332 16.7613L24.8332 17.7613C24.4403 18.1542 23.9699 18.4609 23.4519 18.6619C22.9339 18.863 22.3797 18.9538 21.8246 18.9288C21.2695 18.9038 20.7257 18.7634 20.2279 18.5166C19.7301 18.2698 19.2892 17.9219 18.9332 17.4953C18.3013 16.679 17.9946 15.6574 18.0725 14.6281C18.1505 13.5988 18.6076 12.635 19.3552 11.9233H19.3572ZM13.2932 22.2283L17.1292 18.3913C17.2202 18.5213 17.2932 18.6613 17.3962 18.7843C17.7282 19.1764 18.1082 19.5251 18.5272 19.8223L14.7072 23.6423C13.8851 24.467 12.8333 25.0246 11.6892 25.2423C11.9087 24.0992 12.4677 23.0488 13.2932 22.2283Z" fill="white"></path><g filter="url(#filter0_f_73_212)"><path d="M26.7572 23.9353C26.0686 23.9336 25.3864 24.0684 24.7502 24.3319C24.1139 24.5954 23.5362 24.9823 23.0502 25.4703C21.6383 26.8903 19.9586 28.0161 18.1086 28.7826C16.2585 29.549 14.2748 29.9408 12.2722 29.9353H11.1222C10.9003 29.9356 10.6833 29.8701 10.4987 29.747C10.3141 29.6239 10.1702 29.4488 10.0851 29.2438C10.0001 29.0388 9.97782 28.8133 10.0211 28.5956C10.0644 28.378 10.1713 28.1781 10.3282 28.0213L11.0212 27.3283C12.9441 27.2291 14.7616 26.4195 16.1212 25.0563L20.4472 20.7353C20.8694 20.8487 21.3026 20.9158 21.7392 20.9353C21.8252 20.9353 21.9122 20.9353 22.0002 20.9353C23.5924 20.934 25.1192 20.3019 26.2462 19.1773L27.2462 18.1773C27.8334 17.589 28.2922 16.8854 28.5935 16.1108C28.8949 15.3363 29.0324 14.5076 28.9972 13.6773C28.9639 12.8432 28.7553 12.0256 28.385 11.2775C28.0148 10.5294 27.4911 9.86761 26.8482 9.33525C25.6471 8.38392 24.1354 7.9128 22.6064 8.01332C21.0775 8.11384 19.6405 8.77885 18.5742 9.87925L17.9412 10.5133C17.1762 11.2755 16.6189 12.2209 16.3224 13.2594C16.0259 14.2979 16 15.3949 16.2472 16.4463L11.8792 20.8143C10.5153 22.1734 9.70551 23.9912 9.60724 25.9143L8.91424 26.6073C8.47765 27.0438 8.18035 27.6 8.05993 28.2056C7.93952 28.8111 8.00141 29.4387 8.23778 30.0091C8.47414 30.5795 8.87436 31.0669 9.3878 31.4098C9.90125 31.7526 10.5048 31.9355 11.1222 31.9353H12.2722C14.5374 31.9414 16.7813 31.4982 18.8741 30.6314C20.9668 29.7646 22.8669 28.4913 24.4642 26.8853C24.9177 26.4318 25.4955 26.123 26.1244 25.9979C26.7533 25.8728 27.4053 25.9369 27.9978 26.1822C28.5903 26.4275 29.0968 26.843 29.4532 27.3761C29.8096 27.9092 30 28.536 30.0002 29.1773V30.9353C30.0002 31.2005 30.1056 31.4548 30.2931 31.6424C30.4807 31.8299 30.735 31.9353 31.0002 31.9353C31.2655 31.9353 31.5198 31.8299 31.7073 31.6424C31.8949 31.4548 32.0002 31.2005 32.0002 30.9353V29.1773C31.9984 27.7874 31.4454 26.455 30.4625 25.4723C29.4796 24.4896 28.1471 23.9368 26.7572 23.9353ZM19.3572 11.9233L19.9902 11.2893C20.8116 10.4639 21.9259 9.99664 23.0902 9.98925C23.9917 9.98047 24.8671 10.2912 25.5612 10.8663C25.9907 11.2209 26.3408 11.6619 26.5887 12.1607C26.8366 12.6594 26.9768 13.2048 27.0002 13.7613C27.0233 14.3148 26.9316 14.8671 26.7307 15.3834C26.5299 15.8997 26.2243 16.3688 25.8332 16.7613L24.8332 17.7613C24.4403 18.1542 23.9699 18.4609 23.4519 18.6619C22.9339 18.863 22.3797 18.9538 21.8246 18.9288C21.2695 18.9038 20.7257 18.7634 20.2279 18.5166C19.7301 18.2698 19.2892 17.9219 18.9332 17.4953C18.3013 16.679 17.9946 15.6574 18.0725 14.6281C18.1505 13.5988 18.6076 12.635 19.3552 11.9233H19.3572ZM13.2932 22.2283L17.1292 18.3913C17.2202 18.5213 17.2932 18.6613 17.3962 18.7843C17.7282 19.1764 18.1082 19.5251 18.5272 19.8223L14.7072 23.6423C13.8851 24.467 12.8333 25.0246 11.6892 25.2423C11.9087 24.0992 12.4677 23.0488 13.2932 22.2283Z" fill="#7BFF00"></path></g></g><defs><filter id="filter0_f_73_212" x="0.9" y="0.9" width="38.2002" height="38.1355" filterUnits="userSpaceOnUse" color-interpolation-filters="sRGB"><feFlood flood-opacity="0" result="BackgroundImageFix"></feFlood><feBlend mode="normal" in="SourceGraphic" in2="BackgroundImageFix" result="shape"></feBlend><feGaussianBlur stdDeviation="3.55" result="effect1_foregroundBlur_73_212"></feGaussianBlur></filter></defs></svg> 