<?xml version="1.0" encoding="UTF-8"?> <svg xmlns="http://www.w3.org/2000/svg" width="40" height="40" viewBox="0 0 40 40" fill="none"><mask id="mask0_73_216" style="mask-type:alpha" maskUnits="userSpaceOnUse" x="0" y="0" width="40" height="40"><rect width="40" height="40" fill="#D9D9D9"></rect></mask><g mask="url(#mask0_73_216)"><path d="M31.191 8.80365C30.8202 8.42966 30.3486 8.17156 29.8337 8.06077C29.3189 7.94998 28.7829 7.99129 28.291 8.17965L11.146 14.9327C10.0257 15.3757 9.10411 16.2102 8.55239 17.2813C8.00068 18.3524 7.8563 19.5872 8.14605 20.7566C8.87308 23.4104 10.2782 25.8293 12.2234 27.7755C14.1685 29.7217 16.5866 31.1282 19.24 31.8567C20.4107 32.1446 21.646 31.9983 22.7171 31.4451C23.7882 30.8918 24.6223 29.969 25.065 28.8477L31.823 11.6757C32.0053 11.1869 32.0426 10.6559 31.9305 10.1465C31.8184 9.63703 31.5616 9.17076 31.191 8.80365ZM19.737 29.9146C17.4281 29.281 15.3237 28.0574 13.6308 26.3643C11.9378 24.6712 10.7145 22.5667 10.081 20.2576C9.93497 19.6619 9.97832 19.0354 10.2051 18.4654C10.4318 17.8954 10.8306 17.4103 11.346 17.0777C11.4494 20.1133 12.7014 22.9966 14.8489 25.1447C16.9964 27.2928 19.8794 28.5455 22.915 28.6497C22.5827 29.1649 22.098 29.5637 21.5283 29.7904C20.9587 30.0171 20.3325 30.0606 19.737 29.9146ZM23.764 26.6877C17.573 26.5877 13.409 22.4226 13.308 16.2306L29.001 10.0507C29.1321 10.0004 29.275 9.98975 29.412 10.02C29.5491 10.0502 29.6743 10.12 29.772 10.2207C29.8718 10.3139 29.9421 10.4344 29.9742 10.5671C30.0064 10.6998 29.999 10.8391 29.953 10.9677L29.291 12.6487C23.533 10.6687 20.349 18.8576 25.878 21.3166L23.764 26.6877ZM26.611 19.4556C25.9838 19.1791 25.4879 18.6707 25.2272 18.0368C24.9664 17.4029 24.9611 16.6927 25.2122 16.0549C25.4633 15.4171 25.9514 14.9012 26.5743 14.6152C27.1973 14.3292 27.9067 14.2953 28.554 14.5207L26.611 19.4556Z" fill="white"></path><path d="M18.991 17.0034C18.4605 17.0034 17.9518 17.2141 17.5768 17.5892C17.2017 17.9643 16.991 18.473 16.991 19.0034C16.991 19.5338 17.2017 20.0426 17.5768 20.4176C17.9518 20.7927 18.4605 21.0034 18.991 21.0034C19.5214 21.0034 20.0301 20.7927 20.4052 20.4176C20.7802 20.0426 20.991 19.5338 20.991 19.0034C20.991 18.473 20.7802 17.9643 20.4052 17.5892C20.0301 17.2141 19.5214 17.0034 18.991 17.0034Z" fill="white"></path><g filter="url(#filter0_f_73_216)"><path d="M31.191 8.80365C30.8202 8.42966 30.3486 8.17156 29.8337 8.06077C29.3189 7.94998 28.7829 7.99129 28.291 8.17965L11.146 14.9327C10.0257 15.3757 9.10411 16.2102 8.55239 17.2813C8.00068 18.3524 7.8563 19.5872 8.14605 20.7566C8.87308 23.4104 10.2782 25.8293 12.2234 27.7755C14.1685 29.7217 16.5866 31.1282 19.24 31.8567C20.4107 32.1446 21.646 31.9983 22.7171 31.4451C23.7882 30.8918 24.6223 29.969 25.065 28.8477L31.823 11.6757C32.0053 11.1869 32.0426 10.6559 31.9305 10.1465C31.8184 9.63703 31.5616 9.17076 31.191 8.80365ZM19.737 29.9146C17.4281 29.281 15.3237 28.0574 13.6308 26.3643C11.9378 24.6712 10.7145 22.5667 10.081 20.2576C9.93497 19.6619 9.97832 19.0354 10.2051 18.4654C10.4318 17.8954 10.8306 17.4103 11.346 17.0777C11.4494 20.1133 12.7014 22.9966 14.8489 25.1447C16.9964 27.2928 19.8794 28.5455 22.915 28.6497C22.5827 29.1649 22.098 29.5637 21.5283 29.7904C20.9587 30.0171 20.3325 30.0606 19.737 29.9146ZM23.764 26.6877C17.573 26.5877 13.409 22.4226 13.308 16.2306L29.001 10.0507C29.1321 10.0004 29.275 9.98975 29.412 10.02C29.5491 10.0502 29.6743 10.12 29.772 10.2207C29.8718 10.3139 29.9421 10.4344 29.9742 10.5671C30.0064 10.6998 29.999 10.8391 29.953 10.9677L29.291 12.6487C23.533 10.6687 20.349 18.8576 25.878 21.3166L23.764 26.6877ZM26.611 19.4556C25.9838 19.1791 25.4879 18.6707 25.2272 18.0368C24.9664 17.4029 24.9611 16.6927 25.2122 16.0549C25.4633 15.4171 25.9514 14.9012 26.5743 14.6152C27.1973 14.3292 27.9067 14.2953 28.554 14.5207L26.611 19.4556Z" fill="#FFC400"></path><path d="M18.991 17.0034C18.4605 17.0034 17.9518 17.2141 17.5768 17.5892C17.2017 17.9643 16.991 18.473 16.991 19.0034C16.991 19.5338 17.2017 20.0426 17.5768 20.4176C17.9518 20.7927 18.4605 21.0034 18.991 21.0034C19.5214 21.0034 20.0301 20.7927 20.4052 20.4176C20.7802 20.0426 20.991 19.5338 20.991 19.0034C20.991 18.473 20.7802 17.9643 20.4052 17.5892C20.0301 17.2141 19.5214 17.0034 18.991 17.0034Z" fill="#FFC400"></path></g></g><defs><filter id="filter0_f_73_216" x="-2" y="-2" width="43.9939" height="44.001" filterUnits="userSpaceOnUse" color-interpolation-filters="sRGB"><feFlood flood-opacity="0" result="BackgroundImageFix"></feFlood><feBlend mode="normal" in="SourceGraphic" in2="BackgroundImageFix" result="shape"></feBlend><feGaussianBlur stdDeviation="5" result="effect1_foregroundBlur_73_216"></feGaussianBlur></filter></defs></svg> 